<svg width="78" height="120" viewBox="0 0 78 120" fill="none" xmlns="http://www.w3.org/2000/svg">
<path d="M39.75 12C57.6266 12 71.9998 27.5782 72 46.5146C72 53.5884 69.9943 60.4251 66.1777 66.2588L43 106.406C42.3246 107.582 41.0912 108.285 39.75 108.285C38.4088 108.285 37.1745 107.583 36.499 106.407V106.406L13.2998 66.2275C9.50694 60.4347 7.5 53.5924 7.5 46.5146C7.50018 27.5782 21.8734 12 39.75 12Z" fill="url(#paint0_linear_1484_25648)" stroke="white" stroke-width="3"/>
<path d="M50.58 67.92H49.395V30.54C49.395 30.24 49.155 30 48.855 30C48.555 30 48.315 30.24 48.315 30.54V31.605C48.315 31.605 48.24 31.59 48.21 31.59H31.425C31.425 31.59 31.35 31.605 31.32 31.605V30.54C31.32 30.24 31.08 30 30.78 30C30.48 30 30.24 30.24 30.24 30.54V67.92H29.04C28.74 67.92 28.5 68.16 28.5 68.46C28.5 68.76 28.74 69 29.04 69H50.58C50.88 69 51.12 68.76 51.12 68.46C51.12 68.16 50.88 67.92 50.58 67.92ZM31.425 33.48H48.21C48.21 33.48 48.285 33.465 48.315 33.465V56.895C48.315 56.895 48.24 56.88 48.21 56.88H31.425C31.425 56.88 31.35 56.895 31.32 56.895V33.465C31.32 33.465 31.395 33.48 31.425 33.48ZM31.32 58.755C31.32 58.755 31.395 58.77 31.425 58.77H48.21C48.21 58.77 48.285 58.755 48.315 58.755V67.92H31.32V58.755Z" fill="#F9F5FF"/>
<path d="M34.3948 55.515H45.2248C46.2448 55.515 47.0698 54.69 47.0698 53.67V36.675C47.0698 35.655 46.2448 34.83 45.2248 34.83H34.3948C33.3748 34.83 32.5498 35.655 32.5498 36.675V53.67C32.5498 54.69 33.3748 55.515 34.3948 55.515Z" fill="#F9F5FF"/>
<defs>
<linearGradient id="paint0_linear_1484_25648" x1="39.75" y1="13.5" x2="39.75" y2="106.785" gradientUnits="userSpaceOnUse">
<stop stop-color="#52C41A"/>
<stop offset="1" stop-color="#389E0D"/>
</linearGradient>
</defs>
</svg>
