<svg width="79" height="120" viewBox="0 0 79 120" fill="none" xmlns="http://www.w3.org/2000/svg">
<path d="M40.5 12C58.3766 12 72.7498 27.5782 72.75 46.5146C72.75 53.5884 70.7443 60.4251 66.9277 66.2588L43.75 106.406C43.0746 107.582 41.8412 108.285 40.5 108.285C39.1588 108.285 37.9245 107.583 37.249 106.407V106.406L14.0498 66.2275C10.2569 60.4347 8.25 53.5924 8.25 46.5146C8.25018 27.5782 22.6234 12 40.5 12Z" fill="url(#paint0_linear_1484_25654)" stroke="white" stroke-width="3"/>
<path d="M51.33 67.92H50.145V30.54C50.145 30.24 49.905 30 49.605 30C49.305 30 49.065 30.24 49.065 30.54V31.605C49.065 31.605 48.99 31.59 48.96 31.59H32.175C32.175 31.59 32.1 31.605 32.07 31.605V30.54C32.07 30.24 31.83 30 31.53 30C31.23 30 30.99 30.24 30.99 30.54V67.92H29.79C29.49 67.92 29.25 68.16 29.25 68.46C29.25 68.76 29.49 69 29.79 69H51.33C51.63 69 51.87 68.76 51.87 68.46C51.87 68.16 51.63 67.92 51.33 67.92ZM32.175 33.48H48.96C48.96 33.48 49.035 33.465 49.065 33.465V56.895C49.065 56.895 48.99 56.88 48.96 56.88H32.175C32.175 56.88 32.1 56.895 32.07 56.895V33.465C32.07 33.465 32.145 33.48 32.175 33.48ZM32.07 58.755C32.07 58.755 32.145 58.77 32.175 58.77H48.96C48.96 58.77 49.035 58.755 49.065 58.755V67.92H32.07V58.755Z" fill="#F9F5FF"/>
<path d="M35.145 55.515H45.975C46.995 55.515 47.82 54.69 47.82 53.67V36.675C47.82 35.655 46.995 34.83 45.975 34.83H35.145C34.125 34.83 33.3 35.655 33.3 36.675V53.67C33.3 54.69 34.125 55.515 35.145 55.515Z" fill="#F9F5FF"/>
<defs>
<linearGradient id="paint0_linear_1484_25654" x1="40.5" y1="13.5" x2="40.5" y2="106.785" gradientUnits="userSpaceOnUse">
<stop stop-color="#F759AB"/>
<stop offset="1" stop-color="#EB2F96"/>
</linearGradient>
</defs>
</svg>
