<svg width="79" height="120" viewBox="0 0 79 120" fill="none" xmlns="http://www.w3.org/2000/svg">
<path d="M40.25 12C58.1266 12 72.4998 27.5782 72.5 46.5146C72.5 53.5884 70.4943 60.4251 66.6777 66.2588L43.5 106.406C42.8246 107.582 41.5912 108.285 40.25 108.285C38.9088 108.285 37.6745 107.583 36.999 106.407V106.406L13.7998 66.2275C10.0069 60.4347 8 53.5924 8 46.5146C8.00018 27.5782 22.3734 12 40.25 12Z" fill="url(#paint0_linear_1484_25660)" stroke="white" stroke-width="3"/>
<path d="M51.08 67.92H49.895V30.54C49.895 30.24 49.655 30 49.355 30C49.055 30 48.815 30.24 48.815 30.54V31.605C48.815 31.605 48.74 31.59 48.71 31.59H31.925C31.925 31.59 31.85 31.605 31.82 31.605V30.54C31.82 30.24 31.58 30 31.28 30C30.98 30 30.74 30.24 30.74 30.54V67.92H29.54C29.24 67.92 29 68.16 29 68.46C29 68.76 29.24 69 29.54 69H51.08C51.38 69 51.62 68.76 51.62 68.46C51.62 68.16 51.38 67.92 51.08 67.92ZM31.925 33.48H48.71C48.71 33.48 48.785 33.465 48.815 33.465V56.895C48.815 56.895 48.74 56.88 48.71 56.88H31.925C31.925 56.88 31.85 56.895 31.82 56.895V33.465C31.82 33.465 31.895 33.48 31.925 33.48ZM31.82 58.755C31.82 58.755 31.895 58.77 31.925 58.77H48.71C48.71 58.77 48.785 58.755 48.815 58.755V67.92H31.82V58.755Z" fill="#F9F5FF"/>
<path d="M34.895 55.515H45.725C46.745 55.515 47.57 54.69 47.57 53.67V36.675C47.57 35.655 46.745 34.83 45.725 34.83H34.895C33.875 34.83 33.05 35.655 33.05 36.675V53.67C33.05 54.69 33.875 55.515 34.895 55.515Z" fill="#F9F5FF"/>
<defs>
<linearGradient id="paint0_linear_1484_25660" x1="40.25" y1="13.5" x2="40.25" y2="106.785" gradientUnits="userSpaceOnUse">
<stop stop-color="#9254DE"/>
<stop offset="1" stop-color="#722ED1"/>
</linearGradient>
</defs>
</svg>
