<svg width="78" height="120" viewBox="0 0 78 120" fill="none" xmlns="http://www.w3.org/2000/svg">
<path d="M39.75 12C57.6266 12 71.9998 27.5782 72 46.5146C72 53.5884 69.9943 60.4251 66.1777 66.2588L43 106.406C42.3246 107.582 41.0912 108.285 39.75 108.285C38.4088 108.285 37.1745 107.583 36.499 106.407V106.406L13.2998 66.2275C9.50694 60.4347 7.5 53.5924 7.5 46.5146C7.50018 27.5782 21.8734 12 39.75 12Z" fill="url(#paint0_linear_1484_25720)" stroke="white" stroke-width="3"/>
<path d="M46.455 67.92H41.1301V57.99H45.975C46.335 57.99 46.62 57.705 46.62 57.345V56.745C46.62 56.385 46.335 56.1 45.975 56.1H35.205C34.845 56.1 34.5601 56.385 34.5601 56.745V57.345C34.5601 57.705 34.845 57.99 35.205 57.99H40.0501V67.92H34.725C34.425 67.92 34.1851 68.16 34.1851 68.46C34.1851 68.76 34.425 69 34.725 69H46.455C46.755 69 46.995 68.76 46.995 68.46C46.995 68.16 46.755 67.92 46.455 67.92Z" fill="#F9F5FF"/>
<path d="M26.955 33.3149V54.6599H24.15C23.235 54.6599 22.5 53.8049 22.5 52.7549V35.2199C22.5 34.1699 23.235 33.3149 24.15 33.3149H26.955Z" fill="#F9F5FF"/>
<path d="M33.4949 33.3149V54.6749H29.3249H27.7949V33.3149H33.4949Z" fill="#F9F5FF"/>
<path d="M40.0349 33.3149V54.6749H34.335V33.3149H40.0349Z" fill="#F9F5FF"/>
<path d="M46.56 33.3149V54.6749H40.875V33.3149H46.56Z" fill="#F9F5FF"/>
<path d="M53.0999 33.3149V54.6749H47.3999V33.3149H53.0999Z" fill="#F9F5FF"/>
<path d="M58.65 52.77C58.65 53.82 57.915 54.675 57 54.675H53.9399V33.33H57C57.915 33.33 58.65 34.185 58.65 35.235V52.77Z" fill="#F9F5FF"/>
<path d="M45.9599 30H35.1899C34.8337 30 34.5449 30.2888 34.5449 30.645V31.26C34.5449 31.6162 34.8337 31.905 35.1899 31.905H45.9599C46.3162 31.905 46.6049 31.6162 46.6049 31.26V30.645C46.6049 30.2888 46.3162 30 45.9599 30Z" fill="#F9F5FF"/>
<defs>
<linearGradient id="paint0_linear_1484_25720" x1="39.75" y1="13.5" x2="39.75" y2="106.785" gradientUnits="userSpaceOnUse">
<stop stop-color="#52C41A"/>
<stop offset="1" stop-color="#389E0D"/>
</linearGradient>
</defs>
</svg>
