<svg width="79" height="120" viewBox="0 0 79 120" fill="none" xmlns="http://www.w3.org/2000/svg">
<path d="M40.5 12C58.3766 12 72.7498 27.5782 72.75 46.5146C72.75 53.5884 70.7443 60.4251 66.9277 66.2588L43.75 106.406C43.0746 107.582 41.8412 108.285 40.5 108.285C39.1588 108.285 37.9245 107.583 37.249 106.407V106.406L14.0498 66.2275C10.2569 60.4347 8.25 53.5924 8.25 46.5146C8.25018 27.5782 22.6234 12 40.5 12Z" fill="url(#paint0_linear_1484_25733)" stroke="white" stroke-width="3"/>
<path d="M47.205 67.92H41.8801V57.99H46.725C47.085 57.99 47.37 57.705 47.37 57.345V56.745C47.37 56.385 47.085 56.1 46.725 56.1H35.955C35.595 56.1 35.3101 56.385 35.3101 56.745V57.345C35.3101 57.705 35.595 57.99 35.955 57.99H40.8001V67.92H35.475C35.175 67.92 34.9351 68.16 34.9351 68.46C34.9351 68.76 35.175 69 35.475 69H47.205C47.505 69 47.745 68.76 47.745 68.46C47.745 68.16 47.505 67.92 47.205 67.92Z" fill="#F9F5FF"/>
<path d="M27.705 33.3149V54.6599H24.9C23.985 54.6599 23.25 53.8049 23.25 52.7549V35.2199C23.25 34.1699 23.985 33.3149 24.9 33.3149H27.705Z" fill="#F9F5FF"/>
<path d="M34.2449 33.3149V54.6749H30.0749H28.5449V33.3149H34.2449Z" fill="#F9F5FF"/>
<path d="M40.7849 33.3149V54.6749H35.085V33.3149H40.7849Z" fill="#F9F5FF"/>
<path d="M47.31 33.3149V54.6749H41.625V33.3149H47.31Z" fill="#F9F5FF"/>
<path d="M53.8499 33.3149V54.6749H48.1499V33.3149H53.8499Z" fill="#F9F5FF"/>
<path d="M59.4 52.77C59.4 53.82 58.665 54.675 57.75 54.675H54.6899V33.33H57.75C58.665 33.33 59.4 34.185 59.4 35.235V52.77Z" fill="#F9F5FF"/>
<path d="M46.7099 30H35.9399C35.5837 30 35.2949 30.2888 35.2949 30.645V31.26C35.2949 31.6162 35.5837 31.905 35.9399 31.905H46.7099C47.0662 31.905 47.3549 31.6162 47.3549 31.26V30.645C47.3549 30.2888 47.0662 30 46.7099 30Z" fill="#F9F5FF"/>
<defs>
<linearGradient id="paint0_linear_1484_25733" x1="40.5" y1="13.5" x2="40.5" y2="106.785" gradientUnits="userSpaceOnUse">
<stop stop-color="#F759AB"/>
<stop offset="1" stop-color="#EB2F96"/>
</linearGradient>
</defs>
</svg>
