<svg width="79" height="120" viewBox="0 0 79 120" fill="none" xmlns="http://www.w3.org/2000/svg">
<path d="M40.25 12C58.1266 12 72.4998 27.5782 72.5 46.5146C72.5 53.5884 70.4943 60.4251 66.6777 66.2588L43.5 106.406C42.8246 107.582 41.5912 108.285 40.25 108.285C38.9088 108.285 37.6745 107.583 36.999 106.407V106.406L13.7998 66.2275C10.0069 60.4347 8 53.5924 8 46.5146C8.00018 27.5782 22.3734 12 40.25 12Z" fill="url(#paint0_linear_1484_25746)" stroke="white" stroke-width="3"/>
<path d="M46.955 67.92H41.6301V57.99H46.475C46.835 57.99 47.12 57.705 47.12 57.345V56.745C47.12 56.385 46.835 56.1 46.475 56.1H35.705C35.345 56.1 35.0601 56.385 35.0601 56.745V57.345C35.0601 57.705 35.345 57.99 35.705 57.99H40.5501V67.92H35.225C34.925 67.92 34.6851 68.16 34.6851 68.46C34.6851 68.76 34.925 69 35.225 69H46.955C47.255 69 47.495 68.76 47.495 68.46C47.495 68.16 47.255 67.92 46.955 67.92Z" fill="#F9F5FF"/>
<path d="M27.455 33.3149V54.6599H24.65C23.735 54.6599 23 53.8049 23 52.7549V35.2199C23 34.1699 23.735 33.3149 24.65 33.3149H27.455Z" fill="#F9F5FF"/>
<path d="M33.9949 33.3149V54.6749H29.8249H28.2949V33.3149H33.9949Z" fill="#F9F5FF"/>
<path d="M40.5349 33.3149V54.6749H34.835V33.3149H40.5349Z" fill="#F9F5FF"/>
<path d="M47.06 33.3149V54.6749H41.375V33.3149H47.06Z" fill="#F9F5FF"/>
<path d="M53.5999 33.3149V54.6749H47.8999V33.3149H53.5999Z" fill="#F9F5FF"/>
<path d="M59.15 52.77C59.15 53.82 58.415 54.675 57.5 54.675H54.4399V33.33H57.5C58.415 33.33 59.15 34.185 59.15 35.235V52.77Z" fill="#F9F5FF"/>
<path d="M46.4599 30H35.6899C35.3337 30 35.0449 30.2888 35.0449 30.645V31.26C35.0449 31.6162 35.3337 31.905 35.6899 31.905H46.4599C46.8162 31.905 47.1049 31.6162 47.1049 31.26V30.645C47.1049 30.2888 46.8162 30 46.4599 30Z" fill="#F9F5FF"/>
<defs>
<linearGradient id="paint0_linear_1484_25746" x1="40.25" y1="13.5" x2="40.25" y2="106.785" gradientUnits="userSpaceOnUse">
<stop stop-color="#9254DE"/>
<stop offset="1" stop-color="#722ED1"/>
</linearGradient>
</defs>
</svg>
