<svg width="78" height="119" viewBox="0 0 78 119" fill="none" xmlns="http://www.w3.org/2000/svg">
<path d="M39.75 11.8875C57.6153 11.8875 72 27.3307 72 46.1277C71.9999 53.1495 69.9921 59.9349 66.1719 65.7234L42.9971 105.53L42.998 105.531C42.3198 106.702 41.0851 107.395 39.75 107.395C38.4149 107.395 37.1802 106.702 36.502 105.531V105.53L13.3105 65.699C9.51112 59.9496 7.50007 53.1562 7.5 46.1277C7.5 27.3307 21.8847 11.8875 39.75 11.8875Z" fill="url(#paint0_linear_1484_25844)" stroke="white" stroke-width="3"/>
<path d="M49.9168 31.5146H46.8788C43.7107 31.5146 41.0054 33.5446 39.9638 36.3778C38.8354 33.6906 36.2025 31.7921 33.1501 31.7921H30.0976C28.9403 31.7921 28 32.7414 28 33.9097C28 34.6107 28.5642 35.1802 29.2586 35.1802H32.3978C33.0922 35.1802 33.6564 34.6107 33.6564 33.9097V33.0626C33.6564 33.0626 33.6275 32.9312 33.613 32.8582C36.8825 33.1065 39.4864 35.8666 39.4864 39.2402V41.8251H36.7957C35.7251 41.8251 34.8427 42.716 34.8427 43.7967V52.9681C34.8427 54.0488 35.7251 54.9397 36.7957 54.9397H39.4864V68.4485H34.3797C34.0904 68.4485 33.859 68.6822 33.859 68.9742C33.859 69.2663 34.0904 69.5 34.3797 69.5H45.6203C45.9096 69.5 46.141 69.2663 46.141 68.9742C46.141 68.6822 45.9096 68.4485 45.6203 68.4485H40.5136V54.9397H43.2043C44.2749 54.9397 45.1573 54.0488 45.1573 52.9681V43.7967C45.1573 42.716 44.2749 41.8251 43.2043 41.8251H40.5136V39.0649C40.5136 39.0649 40.5136 39.0357 40.5136 39.0065C40.5136 38.9919 40.5136 38.9773 40.5136 38.9481C40.5136 35.5746 43.1031 32.8144 46.387 32.5661C46.387 32.6391 46.3436 32.6975 46.3436 32.7706V33.6176C46.3436 34.3186 46.9078 34.8882 47.6022 34.8882H50.7414C51.4358 34.8882 52 34.3186 52 33.6176C52 32.4493 51.0597 31.5 49.9024 31.5L49.9168 31.5146Z" fill="white"/>
<defs>
<linearGradient id="paint0_linear_1484_25844" x1="39.75" y1="13.3875" x2="39.75" y2="105.895" gradientUnits="userSpaceOnUse">
<stop stop-color="#52C41A"/>
<stop offset="1" stop-color="#389E0D"/>
</linearGradient>
</defs>
</svg>
