<svg width="79" height="120" viewBox="0 0 79 120" fill="none" xmlns="http://www.w3.org/2000/svg">
<path d="M40.5 12C58.3766 12 72.7498 27.5782 72.75 46.5146C72.75 53.5884 70.7443 60.4251 66.9277 66.2588L43.75 106.406C43.0746 107.582 41.8412 108.285 40.5 108.285C39.1588 108.285 37.9245 107.583 37.249 106.407V106.406L14.0498 66.2275C10.2569 60.4347 8.25 53.5924 8.25 46.5146C8.25018 27.5782 22.6234 12 40.5 12Z" fill="url(#paint0_linear_1484_25848)" stroke="white" stroke-width="3"/>
<path d="M50.6668 32.0146H47.6288C44.4607 32.0146 41.7554 34.0446 40.7138 36.8778C39.5854 34.1906 36.9525 32.2921 33.9001 32.2921H30.8476C29.6903 32.2921 28.75 33.2414 28.75 34.4097C28.75 35.1107 29.3142 35.6802 30.0086 35.6802H33.1478C33.8422 35.6802 34.4064 35.1107 34.4064 34.4097V33.5626C34.4064 33.5626 34.3775 33.4312 34.363 33.3582C37.6325 33.6065 40.2364 36.3666 40.2364 39.7402V42.3251H37.5457C36.4751 42.3251 35.5927 43.216 35.5927 44.2967V53.4681C35.5927 54.5488 36.4751 55.4397 37.5457 55.4397H40.2364V68.9485H35.1297C34.8404 68.9485 34.609 69.1822 34.609 69.4742C34.609 69.7663 34.8404 70 35.1297 70H46.3703C46.6596 70 46.891 69.7663 46.891 69.4742C46.891 69.1822 46.6596 68.9485 46.3703 68.9485H41.2636V55.4397H43.9543C45.0249 55.4397 45.9073 54.5488 45.9073 53.4681V44.2967C45.9073 43.216 45.0249 42.3251 43.9543 42.3251H41.2636V39.5649C41.2636 39.5649 41.2636 39.5357 41.2636 39.5065C41.2636 39.4919 41.2636 39.4773 41.2636 39.4481C41.2636 36.0746 43.8531 33.3144 47.137 33.0661C47.137 33.1391 47.0936 33.1975 47.0936 33.2706V34.1176C47.0936 34.8186 47.6578 35.3882 48.3522 35.3882H51.4914C52.1858 35.3882 52.75 34.8186 52.75 34.1176C52.75 32.9493 51.8097 32 50.6524 32L50.6668 32.0146Z" fill="white"/>
<defs>
<linearGradient id="paint0_linear_1484_25848" x1="40.5" y1="13.5" x2="40.5" y2="106.785" gradientUnits="userSpaceOnUse">
<stop stop-color="#F759AB"/>
<stop offset="1" stop-color="#EB2F96"/>
</linearGradient>
</defs>
</svg>
