<svg width="79" height="119" viewBox="0 0 79 119" fill="none" xmlns="http://www.w3.org/2000/svg">
<path d="M40.25 11.8875C58.1153 11.8875 72.5 27.3307 72.5 46.1277C72.4999 53.1495 70.4921 59.9349 66.6719 65.7234L43.4971 105.53L43.498 105.531C42.8198 106.702 41.5851 107.395 40.25 107.395C38.9149 107.395 37.6802 106.702 37.002 105.531V105.53L13.8105 65.699C10.0111 59.9496 8.00007 53.1562 8 46.1277C8 27.3307 22.3847 11.8875 40.25 11.8875Z" fill="url(#paint0_linear_1484_25852)" stroke="white" stroke-width="3"/>
<path d="M50.4168 31.5146H47.3788C44.2107 31.5146 41.5054 33.5446 40.4638 36.3778C39.3354 33.6906 36.7025 31.7921 33.6501 31.7921H30.5976C29.4403 31.7921 28.5 32.7414 28.5 33.9097C28.5 34.6107 29.0642 35.1802 29.7586 35.1802H32.8978C33.5922 35.1802 34.1564 34.6107 34.1564 33.9097V33.0626C34.1564 33.0626 34.1275 32.9312 34.113 32.8582C37.3825 33.1065 39.9864 35.8666 39.9864 39.2402V41.8251H37.2957C36.2251 41.8251 35.3427 42.716 35.3427 43.7967V52.9681C35.3427 54.0488 36.2251 54.9397 37.2957 54.9397H39.9864V68.4485H34.8797C34.5904 68.4485 34.359 68.6822 34.359 68.9742C34.359 69.2663 34.5904 69.5 34.8797 69.5H46.1203C46.4096 69.5 46.641 69.2663 46.641 68.9742C46.641 68.6822 46.4096 68.4485 46.1203 68.4485H41.0136V54.9397H43.7043C44.7749 54.9397 45.6573 54.0488 45.6573 52.9681V43.7967C45.6573 42.716 44.7749 41.8251 43.7043 41.8251H41.0136V39.0649C41.0136 39.0649 41.0136 39.0357 41.0136 39.0065C41.0136 38.9919 41.0136 38.9773 41.0136 38.9481C41.0136 35.5746 43.6031 32.8144 46.887 32.5661C46.887 32.6391 46.8436 32.6975 46.8436 32.7706V33.6176C46.8436 34.3186 47.4078 34.8882 48.1022 34.8882H51.2414C51.9358 34.8882 52.5 34.3186 52.5 33.6176C52.5 32.4493 51.5597 31.5 50.4024 31.5L50.4168 31.5146Z" fill="white"/>
<defs>
<linearGradient id="paint0_linear_1484_25852" x1="40.25" y1="13.3875" x2="40.25" y2="105.895" gradientUnits="userSpaceOnUse">
<stop stop-color="#9254DE"/>
<stop offset="1" stop-color="#722ED1"/>
</linearGradient>
</defs>
</svg>
