<svg width="78" height="120" viewBox="0 0 78 120" fill="none" xmlns="http://www.w3.org/2000/svg">
<path d="M39.75 11.25C58.09 11.25 72.7498 27.2149 72.75 46.5146C72.75 53.7246 70.7073 60.6989 66.8154 66.6543L43.6504 106.78C42.8397 108.191 41.3568 109.035 39.75 109.035C38.1433 109.035 36.6593 108.192 35.8486 106.781V106.78L12.6572 66.6152C8.79198 60.7018 6.75 53.7248 6.75 46.5146C6.75018 27.2149 21.41 11.25 39.75 11.25Z" fill="url(#paint0_linear_1484_25996)" stroke="white" stroke-width="4.5"/>
<path d="M49.7977 65.0282H47.7056V48.0077H42.6845V65.0282H32.4937C32.2238 65.0282 32.0078 65.2442 32.0078 65.5141C32.0078 65.7841 32.2238 66 32.4937 66H49.7842C50.0542 66 50.2701 65.7841 50.2701 65.5141C50.2701 65.2442 50.0542 65.0282 49.7842 65.0282H49.7977Z" fill="#F9F5FF"/>
<path d="M51.7547 31.5H28.3903C27.6209 31.5 27 32.1209 27 32.8903V45.713C27 46.4824 27.6209 47.1033 28.3903 47.1033H51.7547C52.5241 47.1033 53.145 46.4824 53.145 45.713V32.8903C53.145 32.1209 52.5241 31.5 51.7547 31.5ZM44.8034 40.2195L38.5135 43.8504C37.8116 44.2553 36.9343 43.7424 36.9343 42.9325V35.6708C36.9343 34.8609 37.8116 34.348 38.5135 34.7529L44.8034 38.3838C45.5053 38.7887 45.5053 39.8011 44.8034 40.206V40.2195Z" fill="#F9F5FF"/>
<defs>
<linearGradient id="paint0_linear_1484_25996" x1="39.75" y1="13.5" x2="39.75" y2="106.785" gradientUnits="userSpaceOnUse">
<stop stop-color="#52C41A"/>
<stop offset="1" stop-color="#389E0D"/>
</linearGradient>
</defs>
</svg>
