<svg width="79" height="120" viewBox="0 0 79 120" fill="none" xmlns="http://www.w3.org/2000/svg">
<path d="M40.5 11.25C58.84 11.25 73.4998 27.2149 73.5 46.5146C73.5 53.7246 71.4573 60.6989 67.5654 66.6543L44.4004 106.78C43.5897 108.191 42.1068 109.035 40.5 109.035C38.8933 109.035 37.4093 108.192 36.5986 106.781V106.78L13.4072 66.6152C9.54198 60.7018 7.5 53.7248 7.5 46.5146C7.50018 27.2149 22.16 11.25 40.5 11.25Z" fill="url(#paint0_linear_1484_26002)" stroke="white" stroke-width="4.5"/>
<path d="M50.5475 65.0281H48.4553V48.0076H43.4342V65.0281H33.2435C32.9735 65.0281 32.7576 65.2441 32.7576 65.5141C32.7576 65.784 32.9735 66 33.2435 66H50.534C50.8039 66 51.0199 65.784 51.0199 65.5141C51.0199 65.2441 50.8039 65.0281 50.534 65.0281H50.5475Z" fill="#F9F5FF"/>
<path d="M52.5047 31.5H29.1403C28.3709 31.5 27.75 32.1209 27.75 32.8903V45.713C27.75 46.4824 28.3709 47.1033 29.1403 47.1033H52.5047C53.2741 47.1033 53.895 46.4824 53.895 45.713V32.8903C53.895 32.1209 53.2741 31.5 52.5047 31.5ZM45.5534 40.2195L39.2635 43.8504C38.5616 44.2553 37.6843 43.7424 37.6843 42.9325V35.6708C37.6843 34.8609 38.5616 34.348 39.2635 34.7529L45.5534 38.3838C46.2553 38.7887 46.2553 39.8011 45.5534 40.206V40.2195Z" fill="#F9F5FF"/>
<defs>
<linearGradient id="paint0_linear_1484_26002" x1="40.5" y1="13.5" x2="40.5" y2="106.785" gradientUnits="userSpaceOnUse">
<stop stop-color="#F759AB"/>
<stop offset="1" stop-color="#EB2F96"/>
</linearGradient>
</defs>
</svg>
