<svg width="79" height="120" viewBox="0 0 79 120" fill="none" xmlns="http://www.w3.org/2000/svg">
<path d="M40.25 11.25C58.59 11.25 73.2498 27.2149 73.25 46.5146C73.25 53.7246 71.2073 60.6989 67.3154 66.6543L44.1504 106.78C43.3397 108.191 41.8568 109.035 40.25 109.035C38.6433 109.035 37.1593 108.192 36.3486 106.781V106.78L13.1572 66.6152C9.29198 60.7018 7.25 53.7248 7.25 46.5146C7.25018 27.2149 21.91 11.25 40.25 11.25Z" fill="url(#paint0_linear_1484_26008)" stroke="white" stroke-width="4.5"/>
<path d="M50.2975 65.0281H48.2053V48.0076H43.1842V65.0281H32.9935C32.7235 65.0281 32.5076 65.2441 32.5076 65.5141C32.5076 65.784 32.7235 66 32.9935 66H50.284C50.5539 66 50.7699 65.784 50.7699 65.5141C50.7699 65.2441 50.5539 65.0281 50.284 65.0281H50.2975Z" fill="#F9F5FF"/>
<path d="M52.2547 31.5H28.8903C28.1209 31.5 27.5 32.1209 27.5 32.8903V45.713C27.5 46.4824 28.1209 47.1033 28.8903 47.1033H52.2547C53.0241 47.1033 53.645 46.4824 53.645 45.713V32.8903C53.645 32.1209 53.0241 31.5 52.2547 31.5ZM45.3034 40.2195L39.0135 43.8504C38.3116 44.2553 37.4343 43.7424 37.4343 42.9325V35.6708C37.4343 34.8609 38.3116 34.348 39.0135 34.7529L45.3034 38.3838C46.0053 38.7887 46.0053 39.8011 45.3034 40.206V40.2195Z" fill="#F9F5FF"/>
<defs>
<linearGradient id="paint0_linear_1484_26008" x1="40.25" y1="13.5" x2="40.25" y2="106.785" gradientUnits="userSpaceOnUse">
<stop stop-color="#9254DE"/>
<stop offset="1" stop-color="#722ED1"/>
</linearGradient>
</defs>
</svg>
