<svg width="78" height="119" viewBox="0 0 78 119" fill="none" xmlns="http://www.w3.org/2000/svg">
<path d="M39.75 11.8875C57.6153 11.8875 72 27.3307 72 46.1277C71.9999 53.1495 69.9921 59.9349 66.1719 65.7234L42.9971 105.53L42.998 105.531C42.3198 106.702 41.0851 107.395 39.75 107.395C38.4149 107.395 37.1802 106.702 36.502 105.531V105.53L13.3105 65.699C9.51112 59.9496 7.50007 53.1562 7.5 46.1277C7.5 27.3307 21.8847 11.8875 39.75 11.8875Z" fill="url(#paint0_linear_1484_25860)" stroke="white" stroke-width="3"/>
<path d="M52.6652 64.3195H26.3102C25.9952 64.3195 25.7402 64.5724 25.7402 64.8848C25.7402 65.1971 25.9952 65.45 26.3102 65.45H52.6652C52.9802 65.45 53.2352 65.1971 53.2352 64.8848C53.2352 64.5724 52.9802 64.3195 52.6652 64.3195Z" fill="white"/>
<path d="M34.7554 50.7386H39.0004V56.0937H30.9154C30.5554 56.0937 30.2554 56.3911 30.2554 56.7481V62.832C30.2554 63.189 30.5554 63.4865 30.9154 63.4865H48.0754C48.4354 63.4865 48.7354 63.189 48.7354 62.832V56.7481C48.7354 56.3911 48.4354 56.0937 48.0754 56.0937H39.9904V50.7386H44.2354C45.2554 50.7386 46.0804 49.9205 46.0804 48.909V36.0421C46.0804 35.0306 45.2554 34.2125 44.2354 34.2125H34.7704C33.7504 34.2125 32.9254 35.0306 32.9254 36.0421V48.909C32.9254 49.9205 33.7504 50.7386 34.7704 50.7386H34.7554Z" fill="white"/>
<path d="M43.8903 55.3202C42.8103 55.0673 42.8253 52.5832 41.4603 53.7732C40.8603 54.264 40.6803 54.9037 40.4253 55.4838C40.4253 55.4838 49.0203 55.4392 48.6153 55.5582C49.0653 52.8658 48.6903 51.3039 46.7553 52.3154C45.4353 52.9997 45.4353 55.3499 43.8903 55.3053V55.3202Z" fill="white"/>
<path d="M38.685 55.4838C38.445 54.3979 37.62 51.765 36.03 52.9401C35.16 53.3864 34.86 54.6805 33.72 54.4574C32.37 54.0409 33.345 52.2113 32.61 51.4973C32.145 50.813 30.21 51.3931 30.105 52.1815C29.745 53.1781 30.525 54.6954 31.035 55.4838H38.7H38.685Z" fill="white"/>
<defs>
<linearGradient id="paint0_linear_1484_25860" x1="39.75" y1="13.3875" x2="39.75" y2="105.895" gradientUnits="userSpaceOnUse">
<stop stop-color="#52C41A"/>
<stop offset="1" stop-color="#389E0D"/>
</linearGradient>
</defs>
</svg>
