<svg width="79" height="120" viewBox="0 0 79 120" fill="none" xmlns="http://www.w3.org/2000/svg">
<path d="M40.5 12C58.3766 12 72.7498 27.5782 72.75 46.5146C72.75 53.5884 70.7443 60.4251 66.9277 66.2588L43.75 106.406C43.0746 107.582 41.8412 108.285 40.5 108.285C39.1588 108.285 37.9245 107.583 37.249 106.407V106.406L14.0498 66.2275C10.2569 60.4347 8.25 53.5924 8.25 46.5146C8.25018 27.5782 22.6234 12 40.5 12Z" fill="url(#paint0_linear_1484_25868)" stroke="white" stroke-width="3"/>
<path d="M53.415 64.86H27.06C26.745 64.86 26.49 65.115 26.49 65.43C26.49 65.745 26.745 66 27.06 66H53.415C53.73 66 53.985 65.745 53.985 65.43C53.985 65.115 53.73 64.86 53.415 64.86Z" fill="white"/>
<path d="M35.5049 51.165H39.7499V56.565H31.6649C31.3049 56.565 31.0049 56.865 31.0049 57.225V63.36C31.0049 63.72 31.3049 64.02 31.6649 64.02H48.8249C49.1849 64.02 49.4849 63.72 49.4849 63.36V57.225C49.4849 56.865 49.1849 56.565 48.8249 56.565H40.7399V51.165H44.9849C46.0049 51.165 46.8299 50.34 46.8299 49.32V36.345C46.8299 35.325 46.0049 34.5 44.9849 34.5H35.5199C34.4999 34.5 33.6749 35.325 33.6749 36.345V49.32C33.6749 50.34 34.4999 51.165 35.5199 51.165H35.5049Z" fill="white"/>
<path d="M44.6401 55.785C43.5601 55.53 43.5751 53.025 42.2101 54.225C41.6101 54.72 41.43 55.365 41.175 55.95C41.175 55.95 49.7701 55.905 49.3651 56.025C49.8151 53.31 49.4401 51.735 47.5051 52.755C46.1851 53.445 46.1851 55.815 44.6401 55.77V55.785Z" fill="white"/>
<path d="M39.435 55.95C39.195 54.855 38.37 52.2 36.78 53.385C35.91 53.835 35.61 55.14 34.47 54.915C33.12 54.495 34.095 52.65 33.36 51.93C32.895 51.24 30.96 51.825 30.855 52.62C30.495 53.625 31.275 55.155 31.785 55.95H39.45H39.435Z" fill="white"/>
<defs>
<linearGradient id="paint0_linear_1484_25868" x1="40.5" y1="13.5" x2="40.5" y2="106.785" gradientUnits="userSpaceOnUse">
<stop stop-color="#F759AB"/>
<stop offset="1" stop-color="#EB2F96"/>
</linearGradient>
</defs>
</svg>
