<svg width="79" height="119" viewBox="0 0 79 119" fill="none" xmlns="http://www.w3.org/2000/svg">
<path d="M40.25 11.8875C58.1153 11.8875 72.5 27.3307 72.5 46.1277C72.4999 53.1495 70.4921 59.9349 66.6719 65.7234L43.4971 105.53L43.498 105.531C42.8198 106.702 41.5851 107.395 40.25 107.395C38.9149 107.395 37.6802 106.702 37.002 105.531V105.53L13.8105 65.699C10.0111 59.9496 8.00007 53.1562 8 46.1277C8 27.3307 22.3847 11.8875 40.25 11.8875Z" fill="url(#paint0_linear_1484_25876)" stroke="white" stroke-width="3"/>
<path d="M53.165 64.3195H26.81C26.495 64.3195 26.24 64.5724 26.24 64.8848C26.24 65.1971 26.495 65.45 26.81 65.45H53.165C53.48 65.45 53.735 65.1971 53.735 64.8848C53.735 64.5724 53.48 64.3195 53.165 64.3195Z" fill="white"/>
<path d="M35.2549 50.7386H39.4999V56.0937H31.4149C31.0549 56.0937 30.7549 56.3911 30.7549 56.7481V62.832C30.7549 63.189 31.0549 63.4865 31.4149 63.4865H48.5749C48.9349 63.4865 49.2349 63.189 49.2349 62.832V56.7481C49.2349 56.3911 48.9349 56.0937 48.5749 56.0937H40.4899V50.7386H44.7349C45.7549 50.7386 46.5799 49.9205 46.5799 48.909V36.0421C46.5799 35.0306 45.7549 34.2125 44.7349 34.2125H35.2699C34.2499 34.2125 33.4249 35.0306 33.4249 36.0421V48.909C33.4249 49.9205 34.2499 50.7386 35.2699 50.7386H35.2549Z" fill="white"/>
<path d="M44.3901 55.3202C43.3101 55.0673 43.3251 52.5832 41.9601 53.7732C41.3601 54.264 41.18 54.9037 40.925 55.4838C40.925 55.4838 49.5201 55.4392 49.1151 55.5582C49.5651 52.8658 49.1901 51.3039 47.2551 52.3154C45.9351 52.9997 45.9351 55.3499 44.3901 55.3053V55.3202Z" fill="white"/>
<path d="M39.185 55.4838C38.945 54.3979 38.12 51.765 36.53 52.9401C35.66 53.3864 35.36 54.6805 34.22 54.4574C32.87 54.0409 33.845 52.2113 33.11 51.4973C32.645 50.813 30.71 51.3931 30.605 52.1815C30.245 53.1781 31.025 54.6954 31.535 55.4838H39.2H39.185Z" fill="white"/>
<defs>
<linearGradient id="paint0_linear_1484_25876" x1="40.25" y1="13.3875" x2="40.25" y2="105.895" gradientUnits="userSpaceOnUse">
<stop stop-color="#9254DE"/>
<stop offset="1" stop-color="#722ED1"/>
</linearGradient>
</defs>
</svg>
