<svg width="78" height="120" viewBox="0 0 78 120" fill="none" xmlns="http://www.w3.org/2000/svg">
<path d="M39.75 12C57.6266 12 71.9998 27.5782 72 46.5146C72 53.5884 69.9943 60.4251 66.1777 66.2588L43 106.406C42.3246 107.582 41.0912 108.285 39.75 108.285C38.4088 108.285 37.1745 107.583 36.499 106.407V106.406L13.2998 66.2275C9.50694 60.4347 7.5 53.5924 7.5 46.5146C7.50018 27.5782 21.8734 12 39.75 12Z" fill="url(#paint0_linear_1484_25604)" stroke="white" stroke-width="3"/>
<path d="M45.9453 68.355H40.6203V58.44H45.4503C45.8103 58.44 46.0953 58.155 46.0953 57.795V57.195C46.0953 56.835 45.8103 56.55 45.4503 56.55H34.7103C34.3503 56.55 34.0653 56.835 34.0653 57.195V57.795C34.0653 58.155 34.3503 58.44 34.7103 58.44H39.5403V68.355H34.2153C33.9153 68.355 33.6753 68.595 33.6753 68.895C33.6753 69.195 33.9153 69.435 34.2153 69.435H45.9303C46.2303 69.435 46.4703 69.195 46.4703 68.895C46.4703 68.595 46.2303 68.355 45.9303 68.355H45.9453Z" fill="#F9F5FF"/>
<path d="M56.6851 33.375H23.4751C22.3801 33.375 21.4951 34.26 21.4951 35.355V53.595C21.4951 54.69 22.3801 55.575 23.4751 55.575H56.6851C57.7801 55.575 58.6651 54.69 58.6651 53.595V35.355C58.6651 34.26 57.7801 33.375 56.6851 33.375Z" fill="#F9F5FF"/>
<path d="M45.4649 30.51H34.7099C34.3537 30.51 34.0649 30.7988 34.0649 31.155V31.77C34.0649 32.1262 34.3537 32.415 34.7099 32.415H45.4649C45.8212 32.415 46.1099 32.1262 46.1099 31.77V31.155C46.1099 30.7988 45.8212 30.51 45.4649 30.51Z" fill="#F9F5FF"/>
<defs>
<linearGradient id="paint0_linear_1484_25604" x1="39.75" y1="13.5" x2="39.75" y2="106.785" gradientUnits="userSpaceOnUse">
<stop stop-color="#52C41A"/>
<stop offset="1" stop-color="#389E0D"/>
</linearGradient>
</defs>
</svg>
