<svg width="79" height="120" viewBox="0 0 79 120" fill="none" xmlns="http://www.w3.org/2000/svg">
<path d="M40.5 12C58.3766 12 72.7498 27.5782 72.75 46.5146C72.75 53.5884 70.7443 60.4251 66.9277 66.2588L43.75 106.406C43.0746 107.582 41.8412 108.285 40.5 108.285C39.1588 108.285 37.9245 107.583 37.249 106.407V106.406L14.0498 66.2275C10.2569 60.4347 8.25 53.5924 8.25 46.5146C8.25018 27.5782 22.6234 12 40.5 12Z" fill="url(#paint0_linear_1484_25611)" stroke="white" stroke-width="3"/>
<path d="M46.6948 68.355H41.3698V58.44H46.1998C46.5598 58.44 46.8448 58.155 46.8448 57.795V57.195C46.8448 56.835 46.5598 56.55 46.1998 56.55H35.4598C35.0998 56.55 34.8148 56.835 34.8148 57.195V57.795C34.8148 58.155 35.0998 58.44 35.4598 58.44H40.2898V68.355H34.9648C34.6648 68.355 34.4248 68.595 34.4248 68.895C34.4248 69.195 34.6648 69.435 34.9648 69.435H46.6798C46.9798 69.435 47.2198 69.195 47.2198 68.895C47.2198 68.595 46.9798 68.355 46.6798 68.355H46.6948Z" fill="#F9F5FF"/>
<path d="M57.4349 33.375H24.2249C23.1299 33.375 22.2449 34.26 22.2449 35.355V53.595C22.2449 54.69 23.1299 55.575 24.2249 55.575H57.4349C58.5299 55.575 59.4149 54.69 59.4149 53.595V35.355C59.4149 34.26 58.5299 33.375 57.4349 33.375Z" fill="#F9F5FF"/>
<path d="M46.2149 30.51H35.4599C35.1037 30.51 34.8149 30.7988 34.8149 31.155V31.77C34.8149 32.1262 35.1037 32.415 35.4599 32.415H46.2149C46.5712 32.415 46.8599 32.1262 46.8599 31.77V31.155C46.8599 30.7988 46.5712 30.51 46.2149 30.51Z" fill="#F9F5FF"/>
<defs>
<linearGradient id="paint0_linear_1484_25611" x1="40.5" y1="13.5" x2="40.5" y2="106.785" gradientUnits="userSpaceOnUse">
<stop stop-color="#F759AB"/>
<stop offset="1" stop-color="#EB2F96"/>
</linearGradient>
</defs>
</svg>
