<svg width="79" height="120" viewBox="0 0 79 120" fill="none" xmlns="http://www.w3.org/2000/svg">
<path d="M40.25 12C58.1266 12 72.4998 27.5782 72.5 46.5146C72.5 53.5884 70.4943 60.4251 66.6777 66.2588L43.5 106.406C42.8246 107.582 41.5912 108.285 40.25 108.285C38.9088 108.285 37.6745 107.583 36.999 106.407V106.406L13.7998 66.2275C10.0069 60.4347 8 53.5924 8 46.5146C8.00018 27.5782 22.3734 12 40.25 12Z" fill="url(#paint0_linear_1484_25618)" stroke="white" stroke-width="3"/>
<path d="M46.4448 68.355H41.1198V58.44H45.9498C46.3098 58.44 46.5948 58.155 46.5948 57.795V57.195C46.5948 56.835 46.3098 56.55 45.9498 56.55H35.2098C34.8498 56.55 34.5648 56.835 34.5648 57.195V57.795C34.5648 58.155 34.8498 58.44 35.2098 58.44H40.0398V68.355H34.7148C34.4148 68.355 34.1748 68.595 34.1748 68.895C34.1748 69.195 34.4148 69.435 34.7148 69.435H46.4298C46.7298 69.435 46.9698 69.195 46.9698 68.895C46.9698 68.595 46.7298 68.355 46.4298 68.355H46.4448Z" fill="#F9F5FF"/>
<path d="M57.1849 33.375H23.9749C22.8799 33.375 21.9949 34.26 21.9949 35.355V53.595C21.9949 54.69 22.8799 55.575 23.9749 55.575H57.1849C58.2799 55.575 59.1649 54.69 59.1649 53.595V35.355C59.1649 34.26 58.2799 33.375 57.1849 33.375Z" fill="#F9F5FF"/>
<path d="M45.9649 30.51H35.2099C34.8537 30.51 34.5649 30.7988 34.5649 31.155V31.77C34.5649 32.1262 34.8537 32.415 35.2099 32.415H45.9649C46.3212 32.415 46.6099 32.1262 46.6099 31.77V31.155C46.6099 30.7988 46.3212 30.51 45.9649 30.51Z" fill="#F9F5FF"/>
<defs>
<linearGradient id="paint0_linear_1484_25618" x1="40.25" y1="13.5" x2="40.25" y2="106.785" gradientUnits="userSpaceOnUse">
<stop stop-color="#9254DE"/>
<stop offset="1" stop-color="#722ED1"/>
</linearGradient>
</defs>
</svg>
