<svg width="78" height="119" viewBox="0 0 78 119" fill="none" xmlns="http://www.w3.org/2000/svg">
<path d="M39.75 11.8875C57.6153 11.8875 72 27.3307 72 46.1277C71.9999 53.1495 69.9921 59.9349 66.1719 65.7234L42.9971 105.53L42.998 105.531C42.3198 106.702 41.0851 107.395 39.75 107.395C38.4149 107.395 37.1802 106.702 36.502 105.531V105.53L13.3105 65.699C9.51112 59.9496 7.50007 53.1562 7.5 46.1277C7.5 27.3307 21.8847 11.8875 39.75 11.8875Z" fill="url(#paint0_linear_1484_25908)" stroke="white" stroke-width="3"/>
<path d="M56.43 39.1362V44.8482C56.43 45.2796 56.07 45.6366 55.635 45.6366H51.015C50.58 45.6366 50.22 45.2796 50.22 44.8482V39.2849L50.415 39.0916H56.415L56.46 39.1362H56.43ZM46.53 39.1362V44.8482C46.53 45.2796 46.17 45.6366 45.735 45.6366H41.115C40.68 45.6366 40.32 45.2796 40.32 44.8482V39.2849L40.515 39.0916H46.515L46.56 39.1362H46.53ZM36.645 39.1362V44.8482C36.645 45.2796 36.285 45.6366 35.85 45.6366H31.23C30.795 45.6366 30.435 45.2796 30.435 44.8482V39.2849L30.63 39.0916H36.63L36.675 39.1362H36.645ZM21.465 40.6534C21.675 39.7461 22.5 39.0916 23.445 39.0916H26.745V47.3918C26.745 47.9124 26.385 48.3289 25.95 48.3289H20.445L21.465 40.6534ZM58.95 57.1349H59.04C58.335 54.9781 56.295 53.4311 53.895 53.4311C51.495 53.4311 49.455 54.9929 48.75 57.1349H32.37C31.665 54.9781 29.625 53.4311 27.225 53.4311C24.825 53.4311 22.785 54.9929 22.08 57.1349H20.97C20.07 57.1349 19.365 56.3466 19.485 55.4541L20.31 49.2809H25.95C26.925 49.2809 27.705 48.4331 27.705 47.3918V39.0916H29.475C29.475 39.0916 29.46 39.2106 29.46 39.2849V44.8482C29.46 45.8151 30.24 46.5886 31.215 46.5886H35.835C36.81 46.5886 37.59 45.8151 37.59 44.8482V39.2849C37.59 39.2849 37.59 39.1659 37.575 39.0916H39.36C39.36 39.0916 39.345 39.2106 39.345 39.2849V44.8482C39.345 45.8151 40.125 46.5886 41.1 46.5886H45.72C46.695 46.5886 47.475 45.8151 47.475 44.8482V39.2849C47.475 39.2849 47.475 39.1659 47.46 39.0916H49.245C49.245 39.0916 49.23 39.2106 49.23 39.2849V44.8482C49.23 45.8151 50.01 46.5886 50.985 46.5886H55.605C56.58 46.5886 57.36 45.8151 57.36 44.8482V39.2849C57.36 39.2849 57.36 39.1659 57.345 39.0916H58.92C59.745 39.0916 60.42 39.7609 60.42 40.5791V55.6474C60.42 56.4656 59.745 57.1349 58.92 57.1349H58.95Z" fill="white"/>
<path d="M27.195 54.5764C25.17 54.5764 23.52 56.2127 23.52 58.2208C23.52 60.2289 25.17 61.8652 27.195 61.8652C29.22 61.8652 30.87 60.2289 30.87 58.2208C30.87 56.2127 29.22 54.5764 27.195 54.5764Z" fill="white"/>
<path d="M53.8649 54.5764C51.8399 54.5764 50.1899 56.2127 50.1899 58.2208C50.1899 60.2289 51.8399 61.8652 53.8649 61.8652C55.8899 61.8652 57.5399 60.2289 57.5399 58.2208C57.5399 56.2127 55.8899 54.5764 53.8649 54.5764Z" fill="white"/>
<defs>
<linearGradient id="paint0_linear_1484_25908" x1="39.75" y1="13.3875" x2="39.75" y2="105.895" gradientUnits="userSpaceOnUse">
<stop stop-color="#52C41A"/>
<stop offset="1" stop-color="#389E0D"/>
</linearGradient>
</defs>
</svg>
