<svg width="79" height="119" viewBox="0 0 79 119" fill="none" xmlns="http://www.w3.org/2000/svg">
<path d="M40.5 11.8875C58.3653 11.8875 72.75 27.3307 72.75 46.1277C72.7499 53.1495 70.7421 59.9349 66.9219 65.7234L43.7471 105.53L43.748 105.531C43.0698 106.702 41.8351 107.395 40.5 107.395C39.1649 107.395 37.9302 106.702 37.252 105.531V105.53L14.0605 65.699C10.2611 59.9496 8.25007 53.1562 8.25 46.1277C8.25 27.3307 22.6347 11.8875 40.5 11.8875Z" fill="url(#paint0_linear_1484_25915)" stroke="white" stroke-width="3"/>
<path d="M57.18 39.1362V44.8482C57.18 45.2796 56.82 45.6366 56.385 45.6366H51.765C51.33 45.6366 50.97 45.2796 50.97 44.8482V39.2849L51.165 39.0916H57.165L57.21 39.1362H57.18ZM47.28 39.1362V44.8482C47.28 45.2796 46.92 45.6366 46.485 45.6366H41.865C41.43 45.6366 41.07 45.2796 41.07 44.8482V39.2849L41.265 39.0916H47.265L47.31 39.1362H47.28ZM37.395 39.1362V44.8482C37.395 45.2796 37.035 45.6366 36.6 45.6366H31.98C31.545 45.6366 31.185 45.2796 31.185 44.8482V39.2849L31.38 39.0916H37.38L37.425 39.1362H37.395ZM22.215 40.6534C22.425 39.7461 23.25 39.0916 24.195 39.0916H27.495V47.3918C27.495 47.9124 27.135 48.3289 26.7 48.3289H21.195L22.215 40.6534ZM59.7 57.1349H59.79C59.085 54.9781 57.045 53.4311 54.645 53.4311C52.245 53.4311 50.205 54.9929 49.5 57.1349H33.12C32.415 54.9781 30.375 53.4311 27.975 53.4311C25.575 53.4311 23.535 54.9929 22.83 57.1349H21.72C20.82 57.1349 20.115 56.3466 20.235 55.4541L21.06 49.2809H26.7C27.675 49.2809 28.455 48.4331 28.455 47.3918V39.0916H30.225C30.225 39.0916 30.21 39.2106 30.21 39.2849V44.8482C30.21 45.8151 30.99 46.5886 31.965 46.5886H36.585C37.56 46.5886 38.34 45.8151 38.34 44.8482V39.2849C38.34 39.2849 38.34 39.1659 38.325 39.0916H40.11C40.11 39.0916 40.095 39.2106 40.095 39.2849V44.8482C40.095 45.8151 40.875 46.5886 41.85 46.5886H46.47C47.445 46.5886 48.225 45.8151 48.225 44.8482V39.2849C48.225 39.2849 48.225 39.1659 48.21 39.0916H49.995C49.995 39.0916 49.98 39.2106 49.98 39.2849V44.8482C49.98 45.8151 50.76 46.5886 51.735 46.5886H56.355C57.33 46.5886 58.11 45.8151 58.11 44.8482V39.2849C58.11 39.2849 58.11 39.1659 58.095 39.0916H59.67C60.495 39.0916 61.17 39.7609 61.17 40.5791V55.6474C61.17 56.4656 60.495 57.1349 59.67 57.1349H59.7Z" fill="white"/>
<path d="M27.945 54.5764C25.92 54.5764 24.27 56.2127 24.27 58.2208C24.27 60.2289 25.92 61.8652 27.945 61.8652C29.97 61.8652 31.62 60.2289 31.62 58.2208C31.62 56.2127 29.97 54.5764 27.945 54.5764Z" fill="white"/>
<path d="M54.6149 54.5764C52.5899 54.5764 50.9399 56.2127 50.9399 58.2208C50.9399 60.2289 52.5899 61.8652 54.6149 61.8652C56.6399 61.8652 58.2899 60.2289 58.2899 58.2208C58.2899 56.2127 56.6399 54.5764 54.6149 54.5764Z" fill="white"/>
<defs>
<linearGradient id="paint0_linear_1484_25915" x1="40.5" y1="13.3875" x2="40.5" y2="105.895" gradientUnits="userSpaceOnUse">
<stop stop-color="#F759AB"/>
<stop offset="1" stop-color="#EB2F96"/>
</linearGradient>
</defs>
</svg>
