<svg width="79" height="120" viewBox="0 0 79 120" fill="none" xmlns="http://www.w3.org/2000/svg">
<path d="M40.25 12C58.1266 12 72.4998 27.5782 72.5 46.5146C72.5 53.5884 70.4943 60.4251 66.6777 66.2588L43.5 106.406C42.8246 107.582 41.5912 108.285 40.25 108.285C38.9088 108.285 37.6745 107.583 36.999 106.407V106.406L13.7998 66.2275C10.0069 60.4347 8 53.5924 8 46.5146C8.00018 27.5782 22.3734 12 40.25 12Z" fill="url(#paint0_linear_1484_25922)" stroke="white" stroke-width="3"/>
<path d="M56.93 39.465V45.225C56.93 45.66 56.57 46.02 56.135 46.02H51.515C51.08 46.02 50.72 45.66 50.72 45.225V39.615L50.915 39.42H56.915L56.96 39.465H56.93ZM47.03 39.465V45.225C47.03 45.66 46.67 46.02 46.235 46.02H41.615C41.18 46.02 40.82 45.66 40.82 45.225V39.615L41.015 39.42H47.015L47.06 39.465H47.03ZM37.145 39.465V45.225C37.145 45.66 36.785 46.02 36.35 46.02H31.73C31.295 46.02 30.935 45.66 30.935 45.225V39.615L31.13 39.42H37.13L37.175 39.465H37.145ZM21.965 40.995C22.175 40.08 23 39.42 23.945 39.42H27.245V47.79C27.245 48.315 26.885 48.735 26.45 48.735H20.945L21.965 40.995ZM59.45 57.6151H59.54C58.835 55.4401 56.795 53.88 54.395 53.88C51.995 53.88 49.955 55.4551 49.25 57.6151H32.87C32.165 55.4401 30.125 53.88 27.725 53.88C25.325 53.88 23.285 55.4551 22.58 57.6151H21.47C20.57 57.6151 19.865 56.82 19.985 55.92L20.81 49.695H26.45C27.425 49.695 28.205 48.84 28.205 47.79V39.42H29.975C29.975 39.42 29.96 39.54 29.96 39.615V45.225C29.96 46.2 30.74 46.98 31.715 46.98H36.335C37.31 46.98 38.09 46.2 38.09 45.225V39.615C38.09 39.615 38.09 39.495 38.075 39.42H39.86C39.86 39.42 39.845 39.54 39.845 39.615V45.225C39.845 46.2 40.625 46.98 41.6 46.98H46.22C47.195 46.98 47.975 46.2 47.975 45.225V39.615C47.975 39.615 47.975 39.495 47.96 39.42H49.745C49.745 39.42 49.73 39.54 49.73 39.615V45.225C49.73 46.2 50.51 46.98 51.485 46.98H56.105C57.08 46.98 57.86 46.2 57.86 45.225V39.615C57.86 39.615 57.86 39.495 57.845 39.42H59.42C60.245 39.42 60.92 40.095 60.92 40.92V56.1151C60.92 56.9401 60.245 57.6151 59.42 57.6151H59.45Z" fill="white"/>
<path d="M27.695 55.035C25.67 55.035 24.02 56.685 24.02 58.71C24.02 60.735 25.67 62.385 27.695 62.385C29.72 62.385 31.37 60.735 31.37 58.71C31.37 56.685 29.72 55.035 27.695 55.035Z" fill="white"/>
<path d="M54.3649 55.035C52.3399 55.035 50.6899 56.685 50.6899 58.71C50.6899 60.735 52.3399 62.385 54.3649 62.385C56.3899 62.385 58.0399 60.735 58.0399 58.71C58.0399 56.685 56.3899 55.035 54.3649 55.035Z" fill="white"/>
<defs>
<linearGradient id="paint0_linear_1484_25922" x1="40.25" y1="13.5" x2="40.25" y2="106.785" gradientUnits="userSpaceOnUse">
<stop stop-color="#9254DE"/>
<stop offset="1" stop-color="#722ED1"/>
</linearGradient>
</defs>
</svg>
