<svg width="357" height="120" viewBox="0 0 357 120" fill="none" xmlns="http://www.w3.org/2000/svg">
<path d="M21.8515 75.7821C21.8515 79.2005 24.5502 81.9681 27.8734 81.9681C31.1966 81.9681 33.8954 79.1952 33.8954 75.7821C33.8954 72.3689 31.1966 69.5961 27.8734 69.5961C24.5502 69.5961 21.8515 72.3689 21.8515 75.7821Z" fill="#3E00FB"/>
<path d="M48.0866 47.7843C48.0866 51.2027 50.7853 53.9703 54.1085 53.9703C57.4317 53.9703 60.1305 51.1974 60.1305 47.7843C60.1305 44.3711 57.4317 41.5983 54.1085 41.5983C50.7853 41.5983 48.0866 44.3711 48.0866 47.7843Z" fill="#3E00FB"/>
<path d="M47.1703 56.3992C46.5564 55.8012 46.0114 55.2403 45.4452 54.4307C43.9476 80.9844 21.2144 106.184 0 120C28.1889 112.56 55.5312 84.6886 62.4792 55.489C58.7432 59.9764 51.3084 60.3574 47.1703 56.3992Z" fill="#3E00FB"/>
<path d="M34.9937 66.903C32.3267 39.6666 55.1127 15.6687 75.7769 0C60.1028 5.72562 43.1747 19.9974 33.5385 32.4064C25.0241 43.8947 15.716 56.8488 17.0442 71.7767C19.78 64.3524 29.4215 62.4262 34.9937 66.903Z" fill="#3E00FB"/>
<path d="M168.911 57.7174C169.789 56.621 170.426 55.2853 170.825 53.7203C171.234 52.1553 171.443 50.411 171.443 48.5071C171.443 45.3373 170.905 42.7855 169.818 40.8517C168.742 38.9279 167.117 37.5324 164.944 36.6752C162.771 35.8179 160.04 35.3993 156.741 35.3993H146.434V84.8002H153.75V61.7445H158.874L165.223 84.8002H172.36L165.353 60.0998C166.858 59.6113 168.044 58.8139 168.921 57.7274L168.911 57.7174ZM163.608 53.4213C163.06 54.5775 162.193 55.4049 161.007 55.8933C159.831 56.3817 158.286 56.621 156.372 56.621H153.75V40.5826H156.8C159.851 40.5826 161.884 41.2305 162.901 42.5064C163.917 43.7923 164.416 45.8257 164.416 48.6367C164.416 50.6701 164.137 52.265 163.598 53.4312L163.608 53.4213Z" fill="#3E00FB"/>
<path d="M194.589 35.3895L184.222 84.7905H191.12L193.433 72.53H203.191L205.394 84.7905H212.282L201.856 35.3895H194.599H194.589ZM194.34 67.4663L198.247 45.5169L202.274 67.4663H194.34Z" fill="#3E00FB"/>
<path d="M237.758 71.5033L230.183 35.3895H223.425L234.22 84.7905H240.858L251.534 35.3895H244.885L237.758 71.5033Z" fill="#3E00FB"/>
<path d="M274.889 35.3895H267.693V84.7905H274.889V35.3895Z" fill="#3E00FB"/>
<path d="M291.059 40.6225H299.292V84.5909H306.619V40.6225H314.663V35.2H291.059V40.6225Z" fill="#3E00FB"/>
<path d="M349.26 35.3895L342.123 58.3855L334.867 35.3895H328.099L338.585 67.0376V84.7905H345.602V67.0376L356.088 35.3895H349.26Z" fill="#3E00FB"/>
<path d="M118.284 65.0635H124.235V68.642C124.235 70.9047 124.055 72.8186 123.706 74.3935C123.348 75.9585 122.71 77.1446 121.803 77.9321C120.886 78.7295 119.6 79.1283 117.925 79.1283C116.251 79.1283 114.965 78.7594 114.048 78.0218C113.131 77.2842 112.503 76.1877 112.174 74.7125C111.835 73.2472 111.665 71.4231 111.665 69.2301V50.8792C111.665 49.0152 111.775 47.3207 111.994 45.8155C112.214 44.3004 112.752 43.1042 113.609 42.237C114.466 41.3599 115.842 40.9213 117.756 40.9213C119.5 40.9213 120.786 41.2402 121.593 41.8782C122.411 42.5161 122.939 43.483 123.208 44.7689C123.467 46.0647 123.597 47.6994 123.597 49.6831V51.4175H130.325V49.5136C130.325 46.3737 129.906 43.7621 129.069 41.6788C128.232 39.5955 126.886 38.0306 125.022 37.0039C123.158 35.9772 120.686 35.4589 117.636 35.4589C114.217 35.4589 111.556 36.1167 109.652 37.4225C107.748 38.7383 106.412 40.6322 105.665 43.1142C104.907 45.5962 104.538 48.6065 104.538 52.1451V68.2931C104.538 71.7022 104.937 74.6626 105.754 77.1446C106.572 79.6266 107.887 81.5106 109.722 82.7964C111.546 84.0923 113.988 84.7302 117.048 84.7302C119.39 84.7302 121.224 84.182 122.55 83.0656C123.876 81.9591 124.863 80.5238 125.501 78.7794L126.159 84.1421H130.694V60.1294H118.304V65.0735L118.284 65.0635Z" fill="#3E00FB"/>
</svg>
