<svg width="76" height="120" viewBox="0 0 76 120" fill="none" xmlns="http://www.w3.org/2000/svg">
<path d="M21.8515 75.7821C21.8515 79.2005 24.5502 81.9681 27.8734 81.9681C31.1966 81.9681 33.8954 79.1952 33.8954 75.7821C33.8954 72.3689 31.1966 69.5961 27.8734 69.5961C24.5502 69.5961 21.8515 72.3689 21.8515 75.7821Z" fill="#3E00FB"/>
<path d="M48.0865 47.7843C48.0865 51.2027 50.7853 53.9703 54.1085 53.9703C57.4317 53.9703 60.1305 51.1974 60.1305 47.7843C60.1305 44.3711 57.4317 41.5983 54.1085 41.5983C50.7853 41.5983 48.0865 44.3711 48.0865 47.7843Z" fill="#3E00FB"/>
<path d="M47.1703 56.3992C46.5564 55.8012 46.0114 55.2403 45.4452 54.4307C43.9476 80.9844 21.2144 106.184 0 120C28.1889 112.56 55.5312 84.6886 62.4792 55.489C58.7432 59.9764 51.3084 60.3574 47.1703 56.3992Z" fill="#3E00FB"/>
<path d="M34.9937 66.903C32.3266 39.6666 55.1127 15.6687 75.7768 0C60.1028 5.72562 43.1746 19.9974 33.5384 32.4064C25.0241 43.8947 15.716 56.8488 17.0442 71.7767C19.78 64.3524 29.4215 62.4262 34.9937 66.903Z" fill="#3E00FB"/>
</svg>
