<svg width="78" height="119" viewBox="0 0 78 119" fill="none" xmlns="http://www.w3.org/2000/svg">
<path d="M39.75 11.8875C57.6153 11.8875 72 27.3307 72 46.1277C71.9999 53.1494 69.9921 59.9349 66.1719 65.7234L42.9971 105.53L42.998 105.531C42.3198 106.702 41.0851 107.395 39.75 107.395C38.4149 107.395 37.1802 106.702 36.502 105.531V105.53L13.3105 65.699C9.51112 59.9496 7.50007 53.1561 7.5 46.1277C7.5 27.3307 21.8847 11.8875 39.75 11.8875Z" fill="url(#paint0_linear_1484_25936)" stroke="white" stroke-width="3"/>
<path d="M32.5969 37.5H22.133C21.5092 37.5 21 37.9734 21 38.5464V58.4536C21 59.0391 21.5092 59.5 22.133 59.5H32.5969C33.2207 59.5 33.7298 59.0266 33.7298 58.4536V38.5464C33.7298 37.9609 33.2207 37.5 32.5969 37.5Z" fill="white"/>
<path d="M40.2729 52.7854L41.1004 53.6076L43.3281 52.8726L40.9986 50.5804L40.2729 52.7854Z" fill="white"/>
<path d="M48.8785 49.2848C48.4075 49.2848 47.9492 49.4343 47.5673 49.7458C47.2363 50.0323 46.9945 50.4683 46.9308 50.9168C46.829 51.6019 47.16 52.3245 47.771 52.7231C47.9874 52.8726 48.2675 52.9723 48.4966 53.0096C48.573 53.0096 48.6366 53.0346 48.6494 53.0346C48.713 53.0346 48.9803 53.0346 49.0822 53.0346C49.5914 52.9598 50.0242 52.7231 50.3424 52.3369C50.4825 52.175 50.6479 51.8511 50.6989 51.6642C50.8898 50.9168 50.6479 50.1569 50.0496 49.6959C49.7059 49.4343 49.2986 49.2973 48.8912 49.2848H48.8785Z" fill="white"/>
<path d="M56.0201 38.9451H34.583V58.3041H56.0201C56.9366 58.3041 57.6877 57.5317 57.6877 56.5725V40.6642C57.6877 39.705 56.9366 38.9326 56.0201 38.9326V38.9451ZM44.4996 53.4456L38.402 55.4513L40.3751 49.4966L48.1148 41.9224C48.6622 41.3868 49.5406 41.3868 50.088 41.9224L52.2648 44.0527C52.774 44.551 52.774 45.3482 52.2648 45.8465L50.2535 47.8148L50.1007 46.6812L50.9409 45.859C51.4501 45.3607 51.4501 44.5634 50.9409 44.0651L50.088 43.2305C49.5406 42.6948 48.6622 42.6948 48.1148 43.2305L42.0045 49.2101C41.7245 49.4841 41.7117 49.9451 42.0045 50.2316L44.2322 52.449H44.245C44.245 52.449 44.9706 52.5861 45.3397 52.6608L44.5123 53.4706L44.4996 53.4456ZM53.2068 51.6767C53.1559 51.7763 53.1049 51.7888 52.583 51.8262C52.3284 51.8511 52.0993 51.8635 52.0866 51.8635C52.0738 51.8635 52.0484 51.9258 52.0102 52.0379C51.9465 52.2497 51.8701 52.4366 51.7428 52.6857C51.6919 52.7854 51.641 52.8851 51.641 52.8975C51.641 52.91 51.781 53.0844 51.972 53.2962C52.3284 53.6948 52.3412 53.7322 52.2902 53.8443C52.2648 53.9066 51.7556 54.4298 51.641 54.5045C51.5519 54.5668 51.4501 54.5668 51.3737 54.5045C51.3482 54.4796 51.17 54.3301 50.9791 54.1806C50.8008 54.0311 50.6354 53.9066 50.6226 53.9066C50.6099 53.9066 50.5081 53.9564 50.4062 54.0062C50.1516 54.1308 49.9607 54.218 49.7443 54.2678C49.6297 54.2928 49.566 54.3177 49.566 54.3426C49.566 54.355 49.5406 54.5793 49.5151 54.8284C49.4769 55.3392 49.4642 55.389 49.3624 55.4388C49.3114 55.4638 49.2605 55.4638 48.8404 55.4638C48.4204 55.4638 48.3822 55.4638 48.3185 55.4388C48.2167 55.389 48.2039 55.3392 48.1658 54.8284C48.1403 54.5793 48.1276 54.355 48.1148 54.3426C48.1148 54.3301 48.0639 54.3052 47.9621 54.2803C47.7584 54.2305 47.5038 54.1308 47.2619 54.0062L47.0583 53.8941L46.6764 54.2056C46.269 54.5419 46.2181 54.5793 46.1035 54.5419C46.0144 54.517 45.4416 53.9689 45.3907 53.8567C45.327 53.7197 45.327 53.7322 45.7598 53.2339C45.9126 53.0595 46.0271 52.91 46.0271 52.8975C46.0271 52.8851 45.9762 52.7854 45.9126 52.6733C45.7853 52.4366 45.7089 52.2373 45.6453 52.013C45.6198 51.9258 45.5943 51.8635 45.5816 51.8635C45.5689 51.8635 45.3397 51.8386 45.0851 51.8262C44.5632 51.7888 44.5123 51.7763 44.4614 51.6767C44.4359 51.6268 44.4359 51.577 44.4359 51.1659C44.4359 50.7548 44.4359 50.7174 44.4614 50.6552C44.5123 50.5555 44.5632 50.543 45.0979 50.5057C45.3652 50.4807 45.5943 50.4683 45.5943 50.4558C45.5943 50.4434 45.6325 50.3811 45.658 50.3063C45.7216 50.0821 45.8107 49.8828 45.9253 49.6586C45.989 49.5464 46.0399 49.4468 46.0399 49.4343C46.0399 49.4219 45.9126 49.2724 45.7598 49.0855C45.4034 48.6869 45.4034 48.6744 45.3779 48.5997C45.3525 48.5 45.4034 48.4377 45.7216 48.1263C46.0399 47.8148 46.1163 47.7525 46.2181 47.7775C46.2817 47.7899 46.2945 47.8024 46.7146 48.1512C46.8928 48.3007 47.0583 48.4253 47.071 48.4253C47.0837 48.4253 47.1856 48.3754 47.3001 48.3131C47.5293 48.201 47.7457 48.1138 47.9621 48.0515C48.0385 48.0266 48.1148 48.0017 48.1148 47.9892C48.1148 47.9892 48.153 47.7525 48.1658 47.5034C48.2039 46.9802 48.2167 46.9428 48.3185 46.8805C48.3694 46.8556 48.4204 46.8556 48.8404 46.8556C49.2605 46.8556 49.2987 46.8556 49.3624 46.8805C49.4642 46.9304 49.4769 46.9802 49.5151 47.4909C49.5406 47.7401 49.5533 47.9643 49.5533 47.9768C49.5533 47.9892 49.6042 48.0142 49.6806 48.0391C49.8843 48.0889 50.1516 48.1886 50.3808 48.3131C50.4953 48.3754 50.6099 48.4253 50.6099 48.4253C50.6099 48.4253 50.8008 48.2758 51.0172 48.1014C51.4373 47.7526 51.4628 47.7401 51.5901 47.7899C51.6919 47.8398 52.2648 48.4003 52.2902 48.4875C52.3284 48.5997 52.2902 48.6495 51.9593 49.0357C51.781 49.235 51.641 49.4094 51.641 49.4219C51.641 49.4343 51.6919 49.534 51.7556 49.6461C51.8829 49.8828 51.972 50.107 52.0229 50.2939C52.0356 50.3686 52.0611 50.4309 52.0738 50.4434C52.0866 50.4558 52.2648 50.4807 52.583 50.5057C53.1177 50.543 53.1559 50.5555 53.2195 50.6552C53.245 50.705 53.245 50.7548 53.245 51.1659C53.245 51.577 53.245 51.6144 53.2195 51.6767H53.2068Z" fill="white"/>
<defs>
<linearGradient id="paint0_linear_1484_25936" x1="39.75" y1="13.3875" x2="39.75" y2="105.895" gradientUnits="userSpaceOnUse">
<stop stop-color="#52C41A"/>
<stop offset="1" stop-color="#389E0D"/>
</linearGradient>
</defs>
</svg>
