<svg width="79" height="119" viewBox="0 0 79 119" fill="none" xmlns="http://www.w3.org/2000/svg">
<path d="M40.5 11.8875C58.3653 11.8875 72.75 27.3307 72.75 46.1277C72.7499 53.1494 70.7421 59.9349 66.9219 65.7234L43.7471 105.53L43.748 105.531C43.0698 106.702 41.8351 107.395 40.5 107.395C39.1649 107.395 37.9302 106.702 37.252 105.531V105.53L14.0605 65.699C10.2611 59.9496 8.25007 53.1561 8.25 46.1277C8.25 27.3307 22.6347 11.8875 40.5 11.8875Z" fill="url(#paint0_linear_1484_25944)" stroke="white" stroke-width="3"/>
<path d="M33.3469 37.5H22.883C22.2592 37.5 21.75 37.9734 21.75 38.5464V58.4536C21.75 59.0391 22.2592 59.5 22.883 59.5H33.3469C33.9707 59.5 34.4798 59.0266 34.4798 58.4536V38.5464C34.4798 37.9609 33.9707 37.5 33.3469 37.5Z" fill="white"/>
<path d="M41.0229 52.7854L41.8504 53.6076L44.0781 52.8726L41.7486 50.5804L41.0229 52.7854Z" fill="white"/>
<path d="M49.6282 49.2848C49.1572 49.2848 48.699 49.4343 48.3171 49.7458C47.9861 50.0323 47.7442 50.4683 47.6806 50.9168C47.5787 51.6019 47.9097 52.3245 48.5208 52.7231C48.7372 52.8726 49.0172 52.9723 49.2464 53.0096C49.3227 53.0096 49.3864 53.0346 49.3991 53.0346C49.4628 53.0346 49.7301 53.0346 49.8319 53.0346C50.3411 52.9598 50.7739 52.7231 51.0922 52.3369C51.2322 52.175 51.3977 51.8511 51.4486 51.6642C51.6396 50.9168 51.3977 50.1569 50.7994 49.6959C50.4557 49.4343 50.0483 49.2973 49.641 49.2848H49.6282Z" fill="white"/>
<path d="M56.7698 38.9451H35.3328V58.3041H56.7698C57.6864 58.3041 58.4374 57.5317 58.4374 56.5725V40.6642C58.4374 39.705 57.6864 38.9326 56.7698 38.9326V38.9451ZM45.2493 53.4456L39.1517 55.4513L41.1248 49.4966L48.8646 41.9224C49.412 41.3868 50.2903 41.3868 50.8377 41.9224L53.0145 44.0527C53.5237 44.551 53.5237 45.3482 53.0145 45.8465L51.0032 47.8148L50.8505 46.6812L51.6906 45.859C52.1998 45.3607 52.1998 44.5634 51.6906 44.0651L50.8377 43.2305C50.2903 42.6948 49.412 42.6948 48.8646 43.2305L42.7543 49.2101C42.4742 49.4841 42.4615 49.9451 42.7543 50.2316L44.982 52.449H44.9947C44.9947 52.449 45.7203 52.5861 46.0895 52.6608L45.262 53.4706L45.2493 53.4456ZM53.9565 51.6767C53.9056 51.7763 53.8547 51.7888 53.3328 51.8262C53.0782 51.8511 52.849 51.8635 52.8363 51.8635C52.8236 51.8635 52.7981 51.9258 52.7599 52.0379C52.6963 52.2497 52.6199 52.4366 52.4926 52.6857C52.4417 52.7854 52.3908 52.8851 52.3908 52.8975C52.3908 52.91 52.5308 53.0844 52.7217 53.2962C53.0782 53.6948 53.0909 53.7322 53.04 53.8443C53.0145 53.9066 52.5053 54.4298 52.3908 54.5045C52.3017 54.5668 52.1998 54.5668 52.1234 54.5045C52.098 54.4796 51.9198 54.3301 51.7288 54.1806C51.5506 54.0311 51.3851 53.9066 51.3724 53.9066C51.3596 53.9066 51.2578 53.9564 51.156 54.0062C50.9014 54.1308 50.7104 54.218 50.494 54.2678C50.3794 54.2928 50.3158 54.3177 50.3158 54.3426C50.3158 54.355 50.2903 54.5793 50.2649 54.8284C50.2267 55.3392 50.214 55.389 50.1121 55.4388C50.0612 55.4638 50.0103 55.4638 49.5902 55.4638C49.1701 55.4638 49.1319 55.4638 49.0683 55.4388C48.9664 55.389 48.9537 55.3392 48.9155 54.8284C48.8901 54.5793 48.8773 54.355 48.8646 54.3426C48.8646 54.3301 48.8137 54.3052 48.7118 54.2803C48.5082 54.2305 48.2536 54.1308 48.0117 54.0062L47.808 53.8941L47.4261 54.2056C47.0188 54.5419 46.9678 54.5793 46.8533 54.5419C46.7642 54.517 46.1913 53.9689 46.1404 53.8567C46.0768 53.7197 46.0768 53.7322 46.5096 53.2339C46.6623 53.0595 46.7769 52.91 46.7769 52.8975C46.7769 52.8851 46.726 52.7854 46.6623 52.6733C46.535 52.4366 46.4587 52.2373 46.395 52.013C46.3695 51.9258 46.3441 51.8635 46.3314 51.8635C46.3186 51.8635 46.0895 51.8386 45.8349 51.8262C45.313 51.7888 45.262 51.7763 45.2111 51.6767C45.1857 51.6268 45.1857 51.577 45.1857 51.1659C45.1857 50.7548 45.1857 50.7174 45.2111 50.6552C45.262 50.5555 45.313 50.543 45.8476 50.5057C46.1149 50.4807 46.3441 50.4683 46.3441 50.4558C46.3441 50.4434 46.3823 50.3811 46.4077 50.3063C46.4714 50.0821 46.5605 49.8828 46.6751 49.6586C46.7387 49.5464 46.7896 49.4468 46.7896 49.4343C46.7896 49.4219 46.6623 49.2724 46.5096 49.0855C46.1531 48.6869 46.1531 48.6744 46.1277 48.5997C46.1022 48.5 46.1531 48.4377 46.4714 48.1263C46.7896 47.8148 46.866 47.7525 46.9678 47.7775C47.0315 47.7899 47.0442 47.8024 47.4643 48.1512C47.6425 48.3007 47.808 48.4253 47.8207 48.4253C47.8335 48.4253 47.9353 48.3754 48.0499 48.3131C48.279 48.201 48.4954 48.1138 48.7118 48.0515C48.7882 48.0266 48.8646 48.0017 48.8646 47.9892C48.8646 47.9892 48.9028 47.7525 48.9155 47.5034C48.9537 46.9802 48.9664 46.9428 49.0683 46.8805C49.1192 46.8556 49.1701 46.8556 49.5902 46.8556C50.0103 46.8556 50.0485 46.8556 50.1121 46.8805C50.214 46.9304 50.2267 46.9802 50.2649 47.4909C50.2903 47.7401 50.3031 47.9643 50.3031 47.9768C50.3031 47.9892 50.354 48.0142 50.4304 48.0391C50.634 48.0889 50.9014 48.1886 51.1305 48.3131C51.2451 48.3754 51.3596 48.4253 51.3596 48.4253C51.3596 48.4253 51.5506 48.2758 51.767 48.1014C52.1871 47.7526 52.2125 47.7401 52.3398 47.7899C52.4417 47.8398 53.0145 48.4003 53.04 48.4875C53.0782 48.5997 53.04 48.6495 52.709 49.0357C52.5308 49.235 52.3908 49.4094 52.3908 49.4219C52.3908 49.4343 52.4417 49.534 52.5053 49.6461C52.6326 49.8828 52.7217 50.107 52.7727 50.2939C52.7854 50.3686 52.8109 50.4309 52.8236 50.4434C52.8363 50.4558 53.0145 50.4807 53.3328 50.5057C53.8674 50.543 53.9056 50.5555 53.9693 50.6552C53.9947 50.705 53.9947 50.7548 53.9947 51.1659C53.9947 51.577 53.9947 51.6144 53.9693 51.6767H53.9565Z" fill="white"/>
<defs>
<linearGradient id="paint0_linear_1484_25944" x1="40.5" y1="13.3875" x2="40.5" y2="105.895" gradientUnits="userSpaceOnUse">
<stop stop-color="#F759AB"/>
<stop offset="1" stop-color="#EB2F96"/>
</linearGradient>
</defs>
</svg>
