<svg width="78" height="120" viewBox="0 0 78 120" fill="none" xmlns="http://www.w3.org/2000/svg">
<path d="M39.75 12C57.6266 12 71.9998 27.5782 72 46.5146C72 53.5884 69.9943 60.4251 66.1777 66.2588L43 106.406C42.3246 107.582 41.0912 108.285 39.75 108.285C38.4088 108.285 37.1745 107.583 36.499 106.407V106.406L13.2998 66.2275C9.50694 60.4347 7.5 53.5924 7.5 46.5146C7.50018 27.5782 21.8734 12 39.75 12Z" fill="url(#paint0_linear_1484_25772)" stroke="white" stroke-width="3"/>
<path d="M57.54 68.085H21.54C21.24 68.085 21 68.325 21 68.625C21 68.925 21.24 69.165 21.54 69.165H57.54C57.84 69.165 58.08 68.925 58.08 68.625C58.08 68.325 57.84 68.085 57.54 68.085Z" fill="#F9F5FF"/>
<path d="M56.9102 32.1H22.2002C21.8439 32.1 21.5552 32.3888 21.5552 32.745V33.15C21.5552 33.5062 21.8439 33.795 22.2002 33.795H56.9102C57.2664 33.795 57.5552 33.5062 57.5552 33.15V32.745C57.5552 32.3888 57.2664 32.1 56.9102 32.1Z" fill="#F9F5FF"/>
<path d="M56.9102 56.775H22.2002C21.8439 56.775 21.5552 57.0637 21.5552 57.42V57.825C21.5552 58.1812 21.8439 58.47 22.2002 58.47H56.9102C57.2664 58.47 57.5552 58.1812 57.5552 57.825V57.42C57.5552 57.0637 57.2664 56.775 56.9102 56.775Z" fill="#F9F5FF"/>
<path d="M56.8349 54.015C56.8349 54.36 56.5499 54.645 56.2049 54.645H53.9849V53.19C54.1349 53.1 54.2399 52.935 54.2399 52.755C54.2399 52.47 53.9999 52.23 53.7149 52.23C53.4299 52.23 53.1899 52.47 53.1899 52.755C53.1899 52.935 53.2949 53.1 53.4449 53.19V54.645H46.9049V53.19C47.0549 53.1 47.1599 52.935 47.1599 52.755C47.1599 52.47 46.9199 52.23 46.6349 52.23C46.3499 52.23 46.1099 52.47 46.1099 52.755C46.1099 52.935 46.2149 53.1 46.3649 53.19V54.645H39.8249V53.19C39.9749 53.1 40.0799 52.935 40.0799 52.755C40.0799 52.47 39.8399 52.23 39.5549 52.23C39.2699 52.23 39.0299 52.47 39.0299 52.755C39.0299 52.935 39.1349 53.1 39.2849 53.19V54.645H32.7449V53.19C32.8949 53.1 32.9999 52.935 32.9999 52.755C32.9999 52.47 32.7599 52.23 32.4749 52.23C32.1899 52.23 31.9499 52.47 31.9499 52.755C31.9499 52.935 32.0549 53.1 32.2049 53.19V54.645H25.6649V53.19C25.8149 53.1 25.9199 52.935 25.9199 52.755C25.9199 52.47 25.6799 52.23 25.3949 52.23C25.1099 52.23 24.8699 52.47 24.8699 52.755C24.8699 52.935 24.9749 53.1 25.1249 53.19V54.645H22.9049C22.5599 54.645 22.2749 54.36 22.2749 54.015V36.54C22.2749 36.195 22.5599 35.91 22.9049 35.91H25.1249V37.155C24.9749 37.245 24.8699 37.41 24.8699 37.59C24.8699 37.875 25.1099 38.115 25.3949 38.115C25.6799 38.115 25.9199 37.875 25.9199 37.59C25.9199 37.41 25.8149 37.245 25.6649 37.155V35.91H32.2049V37.155C32.0549 37.245 31.9499 37.41 31.9499 37.59C31.9499 37.875 32.1899 38.115 32.4749 38.115C32.7599 38.115 32.9999 37.875 32.9999 37.59C32.9999 37.41 32.8949 37.245 32.7449 37.155V35.91H39.2849V37.155C39.1349 37.245 39.0299 37.41 39.0299 37.59C39.0299 37.875 39.2699 38.115 39.5549 38.115C39.8399 38.115 40.0799 37.875 40.0799 37.59C40.0799 37.41 39.9749 37.245 39.8249 37.155V35.91H46.3649V37.155C46.2149 37.245 46.1099 37.41 46.1099 37.59C46.1099 37.875 46.3499 38.115 46.6349 38.115C46.9199 38.115 47.1599 37.875 47.1599 37.59C47.1599 37.41 47.0549 37.245 46.9049 37.155V35.91H53.4449V37.155C53.2949 37.245 53.1899 37.41 53.1899 37.59C53.1899 37.875 53.4299 38.115 53.7149 38.115C53.9999 38.115 54.2399 37.875 54.2399 37.59C54.2399 37.41 54.1349 37.245 53.9849 37.155V35.91H56.2049C56.5499 35.91 56.8349 36.195 56.8349 36.54V54.015Z" fill="#F9F5FF"/>
<defs>
<linearGradient id="paint0_linear_1484_25772" x1="39.75" y1="13.5" x2="39.75" y2="106.785" gradientUnits="userSpaceOnUse">
<stop stop-color="#52C41A"/>
<stop offset="1" stop-color="#389E0D"/>
</linearGradient>
</defs>
</svg>
