<svg width="79" height="120" viewBox="0 0 79 120" fill="none" xmlns="http://www.w3.org/2000/svg">
<path d="M40.5 12C58.3766 12 72.7498 27.5782 72.75 46.5146C72.75 53.5884 70.7443 60.4251 66.9277 66.2588L43.75 106.406C43.0746 107.582 41.8412 108.285 40.5 108.285C39.1588 108.285 37.9245 107.583 37.249 106.407V106.406L14.0498 66.2275C10.2569 60.4347 8.25 53.5924 8.25 46.5146C8.25018 27.5782 22.6234 12 40.5 12Z" fill="url(#paint0_linear_1484_25780)" stroke="white" stroke-width="3"/>
<path d="M58.29 68.085H22.29C21.99 68.085 21.75 68.325 21.75 68.625C21.75 68.925 21.99 69.165 22.29 69.165H58.29C58.59 69.165 58.83 68.925 58.83 68.625C58.83 68.325 58.59 68.085 58.29 68.085Z" fill="#F9F5FF"/>
<path d="M57.6599 32.1H22.9499C22.5937 32.1 22.3049 32.3888 22.3049 32.745V33.15C22.3049 33.5062 22.5937 33.795 22.9499 33.795H57.6599C58.0162 33.795 58.3049 33.5062 58.3049 33.15V32.745C58.3049 32.3888 58.0162 32.1 57.6599 32.1Z" fill="#F9F5FF"/>
<path d="M57.6599 56.775H22.9499C22.5937 56.775 22.3049 57.0637 22.3049 57.42V57.825C22.3049 58.1812 22.5937 58.47 22.9499 58.47H57.6599C58.0162 58.47 58.3049 58.1812 58.3049 57.825V57.42C58.3049 57.0637 58.0162 56.775 57.6599 56.775Z" fill="#F9F5FF"/>
<path d="M57.5849 54.015C57.5849 54.36 57.2999 54.645 56.9549 54.645H54.7349V53.19C54.8849 53.1 54.9899 52.935 54.9899 52.755C54.9899 52.47 54.7499 52.23 54.4649 52.23C54.1799 52.23 53.9399 52.47 53.9399 52.755C53.9399 52.935 54.0449 53.1 54.1949 53.19V54.645H47.6549V53.19C47.8049 53.1 47.9099 52.935 47.9099 52.755C47.9099 52.47 47.6699 52.23 47.3849 52.23C47.0999 52.23 46.8599 52.47 46.8599 52.755C46.8599 52.935 46.9649 53.1 47.1149 53.19V54.645H40.5749V53.19C40.7249 53.1 40.8299 52.935 40.8299 52.755C40.8299 52.47 40.5899 52.23 40.3049 52.23C40.0199 52.23 39.7799 52.47 39.7799 52.755C39.7799 52.935 39.8849 53.1 40.0349 53.19V54.645H33.4949V53.19C33.6449 53.1 33.7499 52.935 33.7499 52.755C33.7499 52.47 33.5099 52.23 33.2249 52.23C32.9399 52.23 32.6999 52.47 32.6999 52.755C32.6999 52.935 32.8049 53.1 32.9549 53.19V54.645H26.4149V53.19C26.5649 53.1 26.6699 52.935 26.6699 52.755C26.6699 52.47 26.4299 52.23 26.1449 52.23C25.8599 52.23 25.6199 52.47 25.6199 52.755C25.6199 52.935 25.7249 53.1 25.8749 53.19V54.645H23.6549C23.3099 54.645 23.0249 54.36 23.0249 54.015V36.54C23.0249 36.195 23.3099 35.91 23.6549 35.91H25.8749V37.155C25.7249 37.245 25.6199 37.41 25.6199 37.59C25.6199 37.875 25.8599 38.115 26.1449 38.115C26.4299 38.115 26.6699 37.875 26.6699 37.59C26.6699 37.41 26.5649 37.245 26.4149 37.155V35.91H32.9549V37.155C32.8049 37.245 32.6999 37.41 32.6999 37.59C32.6999 37.875 32.9399 38.115 33.2249 38.115C33.5099 38.115 33.7499 37.875 33.7499 37.59C33.7499 37.41 33.6449 37.245 33.4949 37.155V35.91H40.0349V37.155C39.8849 37.245 39.7799 37.41 39.7799 37.59C39.7799 37.875 40.0199 38.115 40.3049 38.115C40.5899 38.115 40.8299 37.875 40.8299 37.59C40.8299 37.41 40.7249 37.245 40.5749 37.155V35.91H47.1149V37.155C46.9649 37.245 46.8599 37.41 46.8599 37.59C46.8599 37.875 47.0999 38.115 47.3849 38.115C47.6699 38.115 47.9099 37.875 47.9099 37.59C47.9099 37.41 47.8049 37.245 47.6549 37.155V35.91H54.1949V37.155C54.0449 37.245 53.9399 37.41 53.9399 37.59C53.9399 37.875 54.1799 38.115 54.4649 38.115C54.7499 38.115 54.9899 37.875 54.9899 37.59C54.9899 37.41 54.8849 37.245 54.7349 37.155V35.91H56.9549C57.2999 35.91 57.5849 36.195 57.5849 36.54V54.015Z" fill="#F9F5FF"/>
<defs>
<linearGradient id="paint0_linear_1484_25780" x1="40.5" y1="13.5" x2="40.5" y2="106.785" gradientUnits="userSpaceOnUse">
<stop stop-color="#F759AB"/>
<stop offset="1" stop-color="#EB2F96"/>
</linearGradient>
</defs>
</svg>
