<svg width="79" height="120" viewBox="0 0 79 120" fill="none" xmlns="http://www.w3.org/2000/svg">
<path d="M40.25 12C58.1266 12 72.4998 27.5782 72.5 46.5146C72.5 53.5884 70.4943 60.4251 66.6777 66.2588L43.5 106.406C42.8246 107.582 41.5912 108.285 40.25 108.285C38.9088 108.285 37.6745 107.583 36.999 106.407V106.406L13.7998 66.2275C10.0069 60.4347 8 53.5924 8 46.5146C8.00018 27.5782 22.3734 12 40.25 12Z" fill="url(#paint0_linear_1484_25788)" stroke="white" stroke-width="3"/>
<path d="M58.04 68.085H22.04C21.74 68.085 21.5 68.325 21.5 68.625C21.5 68.925 21.74 69.165 22.04 69.165H58.04C58.34 69.165 58.58 68.925 58.58 68.625C58.58 68.325 58.34 68.085 58.04 68.085Z" fill="#F9F5FF"/>
<path d="M57.4099 32.1H22.6999C22.3437 32.1 22.0549 32.3888 22.0549 32.745V33.15C22.0549 33.5062 22.3437 33.795 22.6999 33.795H57.4099C57.7662 33.795 58.0549 33.5062 58.0549 33.15V32.745C58.0549 32.3888 57.7662 32.1 57.4099 32.1Z" fill="#F9F5FF"/>
<path d="M57.4099 56.775H22.6999C22.3437 56.775 22.0549 57.0637 22.0549 57.42V57.825C22.0549 58.1812 22.3437 58.47 22.6999 58.47H57.4099C57.7662 58.47 58.0549 58.1812 58.0549 57.825V57.42C58.0549 57.0637 57.7662 56.775 57.4099 56.775Z" fill="#F9F5FF"/>
<path d="M57.3349 54.015C57.3349 54.36 57.0499 54.645 56.7049 54.645H54.4849V53.19C54.6349 53.1 54.7399 52.935 54.7399 52.755C54.7399 52.47 54.4999 52.23 54.2149 52.23C53.9299 52.23 53.6899 52.47 53.6899 52.755C53.6899 52.935 53.7949 53.1 53.9449 53.19V54.645H47.4049V53.19C47.5549 53.1 47.6599 52.935 47.6599 52.755C47.6599 52.47 47.4199 52.23 47.1349 52.23C46.8499 52.23 46.6099 52.47 46.6099 52.755C46.6099 52.935 46.7149 53.1 46.8649 53.19V54.645H40.3249V53.19C40.4749 53.1 40.5799 52.935 40.5799 52.755C40.5799 52.47 40.3399 52.23 40.0549 52.23C39.7699 52.23 39.5299 52.47 39.5299 52.755C39.5299 52.935 39.6349 53.1 39.7849 53.19V54.645H33.2449V53.19C33.3949 53.1 33.4999 52.935 33.4999 52.755C33.4999 52.47 33.2599 52.23 32.9749 52.23C32.6899 52.23 32.4499 52.47 32.4499 52.755C32.4499 52.935 32.5549 53.1 32.7049 53.19V54.645H26.1649V53.19C26.3149 53.1 26.4199 52.935 26.4199 52.755C26.4199 52.47 26.1799 52.23 25.8949 52.23C25.6099 52.23 25.3699 52.47 25.3699 52.755C25.3699 52.935 25.4749 53.1 25.6249 53.19V54.645H23.4049C23.0599 54.645 22.7749 54.36 22.7749 54.015V36.54C22.7749 36.195 23.0599 35.91 23.4049 35.91H25.6249V37.155C25.4749 37.245 25.3699 37.41 25.3699 37.59C25.3699 37.875 25.6099 38.115 25.8949 38.115C26.1799 38.115 26.4199 37.875 26.4199 37.59C26.4199 37.41 26.3149 37.245 26.1649 37.155V35.91H32.7049V37.155C32.5549 37.245 32.4499 37.41 32.4499 37.59C32.4499 37.875 32.6899 38.115 32.9749 38.115C33.2599 38.115 33.4999 37.875 33.4999 37.59C33.4999 37.41 33.3949 37.245 33.2449 37.155V35.91H39.7849V37.155C39.6349 37.245 39.5299 37.41 39.5299 37.59C39.5299 37.875 39.7699 38.115 40.0549 38.115C40.3399 38.115 40.5799 37.875 40.5799 37.59C40.5799 37.41 40.4749 37.245 40.3249 37.155V35.91H46.8649V37.155C46.7149 37.245 46.6099 37.41 46.6099 37.59C46.6099 37.875 46.8499 38.115 47.1349 38.115C47.4199 38.115 47.6599 37.875 47.6599 37.59C47.6599 37.41 47.5549 37.245 47.4049 37.155V35.91H53.9449V37.155C53.7949 37.245 53.6899 37.41 53.6899 37.59C53.6899 37.875 53.9299 38.115 54.2149 38.115C54.4999 38.115 54.7399 37.875 54.7399 37.59C54.7399 37.41 54.6349 37.245 54.4849 37.155V35.91H56.7049C57.0499 35.91 57.3349 36.195 57.3349 36.54V54.015Z" fill="#F9F5FF"/>
<defs>
<linearGradient id="paint0_linear_1484_25788" x1="40.25" y1="13.5" x2="40.25" y2="106.785" gradientUnits="userSpaceOnUse">
<stop stop-color="#9254DE"/>
<stop offset="1" stop-color="#722ED1"/>
</linearGradient>
</defs>
</svg>
