<svg width="78" height="119" viewBox="0 0 78 119" fill="none" xmlns="http://www.w3.org/2000/svg">
<path d="M39.75 11.8875C57.6153 11.8875 72 27.3307 72 46.1277C71.9999 53.1495 69.9921 59.9349 66.1719 65.7234L42.9971 105.53L42.998 105.531C42.3198 106.702 41.0851 107.395 39.75 107.395C38.4149 107.395 37.1802 106.702 36.502 105.531V105.53L13.3105 65.699C9.51112 59.9496 7.50007 53.1562 7.5 46.1277C7.5 27.3307 21.8847 11.8875 39.75 11.8875Z" fill="url(#paint0_linear_1484_25892)" stroke="white" stroke-width="3"/>
<path d="M34.684 63.5952V64.1029C34.684 64.2886 34.8326 64.4248 35.0059 64.4248H39.0545V66.1086H34.684C34.4364 66.1086 34.2383 66.3067 34.2383 66.5543C34.2383 66.8019 34.4364 67 34.684 67H44.3164C44.564 67 44.7621 66.8019 44.7621 66.5543C44.7621 66.3067 44.564 66.1086 44.3164 66.1086H39.9459V64.4248H43.9945C44.1802 64.4248 44.3164 64.2762 44.3164 64.1029V63.5952H34.684ZM34.6964 55.8448C34.6964 55.8448 34.6964 55.8076 34.6964 55.7829V55.2257C34.6964 55.04 34.8449 54.9038 35.0183 54.9038H39.0669V50.521H39.9583V54.9038H44.0069C44.1926 54.9038 44.3288 55.0524 44.3288 55.2257V55.7829C44.3288 55.7829 44.3288 55.82 44.3288 55.8448H34.7211H34.6964ZM35.9716 49.9638V41.5571C35.9716 41.2476 36.2192 41 36.5288 41H42.484C42.7935 41 43.0411 41.2476 43.0411 41.5571V49.9638C43.0411 50.2733 42.7935 50.521 42.484 50.521H36.5288C36.2192 50.521 35.9716 50.2733 35.9716 49.9638ZM40.0821 57.1076C40.0821 56.8229 40.3173 56.5876 40.6021 56.5876H43.2269C43.5116 56.5876 43.7469 56.8229 43.7469 57.1076V62.3324C43.7469 62.6171 43.5116 62.8524 43.2269 62.8524H40.6021C40.3173 62.8524 40.0821 62.6171 40.0821 62.3324V57.1076ZM38.9307 62.3324C38.9307 62.6171 38.6954 62.8524 38.4107 62.8524H35.7859C35.5011 62.8524 35.2659 62.6171 35.2659 62.3324V57.1076C35.2659 56.8229 35.5011 56.5876 35.7859 56.5876H38.4107C38.6954 56.5876 38.9307 56.8229 38.9307 57.1076V62.3324Z" fill="white"/>
<defs>
<linearGradient id="paint0_linear_1484_25892" x1="39.75" y1="13.3875" x2="39.75" y2="105.895" gradientUnits="userSpaceOnUse">
<stop stop-color="#52C41A"/>
<stop offset="1" stop-color="#389E0D"/>
</linearGradient>
</defs>
</svg>
