<svg width="79" height="120" viewBox="0 0 79 120" fill="none" xmlns="http://www.w3.org/2000/svg">
<path d="M40.5 12C58.3766 12 72.7498 27.5782 72.75 46.5146C72.75 53.5884 70.7443 60.4251 66.9277 66.2588L43.75 106.406C43.0746 107.582 41.8412 108.285 40.5 108.285C39.1588 108.285 37.9245 107.583 37.249 106.407V106.406L14.0498 66.2275C10.2569 60.4347 8.25 53.5924 8.25 46.5146C8.25018 27.5782 22.6234 12 40.5 12Z" fill="url(#paint0_linear_1484_25896)" stroke="white" stroke-width="3"/>
<path d="M35.4338 63.5952V64.1029C35.4338 64.2886 35.5823 64.4248 35.7557 64.4248H39.8042V66.1086H35.4338C35.1861 66.1086 34.988 66.3067 34.988 66.5543C34.988 66.8019 35.1861 67 35.4338 67H45.0661C45.3138 67 45.5118 66.8019 45.5118 66.5543C45.5118 66.3067 45.3138 66.1086 45.0661 66.1086H40.6957V64.4248H44.7442C44.9299 64.4248 45.0661 64.2762 45.0661 64.1029V63.5952H35.4338ZM35.4461 55.8448C35.4461 55.8448 35.4461 55.8076 35.4461 55.7829V55.2257C35.4461 55.04 35.5947 54.9038 35.768 54.9038H39.8166V50.521H40.708V54.9038H44.7566C44.9423 54.9038 45.0785 55.0524 45.0785 55.2257V55.7829C45.0785 55.7829 45.0785 55.82 45.0785 55.8448H35.4709H35.4461ZM36.7214 49.9638V41.5571C36.7214 41.2476 36.969 41 37.2785 41H43.2338C43.5433 41 43.7909 41.2476 43.7909 41.5571V49.9638C43.7909 50.2733 43.5433 50.521 43.2338 50.521H37.2785C36.969 50.521 36.7214 50.2733 36.7214 49.9638ZM40.8318 57.1076C40.8318 56.8229 41.0671 56.5876 41.3518 56.5876H43.9766C44.2614 56.5876 44.4966 56.8229 44.4966 57.1076V62.3324C44.4966 62.6171 44.2614 62.8524 43.9766 62.8524H41.3518C41.0671 62.8524 40.8318 62.6171 40.8318 62.3324V57.1076ZM39.6804 62.3324C39.6804 62.6171 39.4452 62.8524 39.1604 62.8524H36.5357C36.2509 62.8524 36.0157 62.6171 36.0157 62.3324V57.1076C36.0157 56.8229 36.2509 56.5876 36.5357 56.5876H39.1604C39.4452 56.5876 39.6804 56.8229 39.6804 57.1076V62.3324Z" fill="white"/>
<defs>
<linearGradient id="paint0_linear_1484_25896" x1="40.5" y1="13.5" x2="40.5" y2="106.785" gradientUnits="userSpaceOnUse">
<stop stop-color="#F759AB"/>
<stop offset="1" stop-color="#EB2F96"/>
</linearGradient>
</defs>
</svg>
