<svg width="79" height="119" viewBox="0 0 79 119" fill="none" xmlns="http://www.w3.org/2000/svg">
<path d="M40.25 11.8875C58.1153 11.8875 72.5 27.3307 72.5 46.1277C72.4999 53.1495 70.4921 59.9349 66.6719 65.7234L43.4971 105.53L43.498 105.531C42.8198 106.702 41.5851 107.395 40.25 107.395C38.9149 107.395 37.6802 106.702 37.002 105.531V105.53L13.8105 65.699C10.0111 59.9496 8.00007 53.1562 8 46.1277C8 27.3307 22.3847 11.8875 40.25 11.8875Z" fill="url(#paint0_linear_1484_25900)" stroke="white" stroke-width="3"/>
<path d="M35.1838 63.5952V64.1029C35.1838 64.2886 35.3323 64.4248 35.5057 64.4248H39.5542V66.1086H35.1838C34.9361 66.1086 34.738 66.3067 34.738 66.5543C34.738 66.8019 34.9361 67 35.1838 67H44.8161C45.0638 67 45.2618 66.8019 45.2618 66.5543C45.2618 66.3067 45.0638 66.1086 44.8161 66.1086H40.4457V64.4248H44.4942C44.6799 64.4248 44.8161 64.2762 44.8161 64.1029V63.5952H35.1838ZM35.1961 55.8448C35.1961 55.8448 35.1961 55.8076 35.1961 55.7829V55.2257C35.1961 55.04 35.3447 54.9038 35.518 54.9038H39.5666V50.521H40.458V54.9038H44.5066C44.6923 54.9038 44.8285 55.0524 44.8285 55.2257V55.7829C44.8285 55.7829 44.8285 55.82 44.8285 55.8448H35.2209H35.1961ZM36.4714 49.9638V41.5571C36.4714 41.2476 36.719 41 37.0285 41H42.9838C43.2933 41 43.5409 41.2476 43.5409 41.5571V49.9638C43.5409 50.2733 43.2933 50.521 42.9838 50.521H37.0285C36.719 50.521 36.4714 50.2733 36.4714 49.9638ZM40.5818 57.1076C40.5818 56.8229 40.8171 56.5876 41.1018 56.5876H43.7266C44.0114 56.5876 44.2466 56.8229 44.2466 57.1076V62.3324C44.2466 62.6171 44.0114 62.8524 43.7266 62.8524H41.1018C40.8171 62.8524 40.5818 62.6171 40.5818 62.3324V57.1076ZM39.4304 62.3324C39.4304 62.6171 39.1952 62.8524 38.9104 62.8524H36.2857C36.0009 62.8524 35.7657 62.6171 35.7657 62.3324V57.1076C35.7657 56.8229 36.0009 56.5876 36.2857 56.5876H38.9104C39.1952 56.5876 39.4304 56.8229 39.4304 57.1076V62.3324Z" fill="white"/>
<defs>
<linearGradient id="paint0_linear_1484_25900" x1="40.25" y1="13.3875" x2="40.25" y2="105.895" gradientUnits="userSpaceOnUse">
<stop stop-color="#9254DE"/>
<stop offset="1" stop-color="#722ED1"/>
</linearGradient>
</defs>
</svg>
