<svg width="78" height="119" viewBox="0 0 78 119" fill="none" xmlns="http://www.w3.org/2000/svg">
<path d="M39.75 11.8875C57.6153 11.8875 72 27.3307 72 46.1277C71.9999 53.1495 69.9921 59.9349 66.1719 65.7234L42.9971 105.53L42.998 105.531C42.3198 106.702 41.0851 107.395 39.75 107.395C38.4149 107.395 37.1802 106.702 36.502 105.531V105.53L13.3105 65.699C9.51112 59.9496 7.50007 53.1561 7.5 46.1277C7.5 27.3307 21.8847 11.8875 39.75 11.8875Z" fill="url(#paint0_linear_1484_25968)" stroke="white" stroke-width="3"/>
<path d="M45.4502 67.2945H40.1252V57.4621H44.9552C45.3152 57.4621 45.6002 57.1795 45.6002 56.8225V56.2275C45.6002 55.8705 45.3152 55.5879 44.9552 55.5879H34.2152C33.8552 55.5879 33.5702 55.8705 33.5702 56.2275V56.8225C33.5702 57.1795 33.8552 57.4621 34.2152 57.4621H39.0452V67.2945H33.7202C33.4202 67.2945 33.1802 67.5325 33.1802 67.83C33.1802 68.1275 33.4202 68.3655 33.7202 68.3655H45.4352C45.7352 68.3655 45.9752 68.1275 45.9752 67.83C45.9752 67.5325 45.7352 67.2945 45.4352 67.2945H45.4502Z" fill="#F9F5FF"/>
<path d="M44.9698 29.75H34.2148C33.8586 29.75 33.5698 30.0364 33.5698 30.3896V30.9995C33.5698 31.3528 33.8586 31.6391 34.2148 31.6391H44.9698C45.326 31.6391 45.6148 31.3528 45.6148 30.9995V30.3896C45.6148 30.0364 45.326 29.75 44.9698 29.75Z" fill="#F9F5FF"/>
<path d="M56.19 32.5911H22.98C21.885 32.5911 21 33.4688 21 34.5546V52.6426C21 53.7285 21.885 54.6061 22.98 54.6061H56.19C57.285 54.6061 58.17 53.7285 58.17 52.6426V34.5546C58.17 33.4688 57.285 32.5911 56.19 32.5911ZM46.305 44.8928L37.35 50.0098C36.345 50.575 35.1 49.861 35.1 48.7156V38.4668C35.1 37.3214 36.345 36.6074 37.35 37.1726L46.305 42.2896C47.31 42.8549 47.31 44.2978 46.305 44.863V44.8928Z" fill="#F9F5FF"/>
<defs>
<linearGradient id="paint0_linear_1484_25968" x1="39.75" y1="13.3875" x2="39.75" y2="105.895" gradientUnits="userSpaceOnUse">
<stop stop-color="#52C41A"/>
<stop offset="1" stop-color="#389E0D"/>
</linearGradient>
</defs>
</svg>
