<svg width="79" height="120" viewBox="0 0 79 120" fill="none" xmlns="http://www.w3.org/2000/svg">
<path d="M40.5 12C58.3766 12 72.7498 27.5782 72.75 46.5146C72.75 53.5884 70.7443 60.4251 66.9277 66.2588L43.75 106.406C43.0746 107.582 41.8412 108.285 40.5 108.285C39.1588 108.285 37.9245 107.583 37.249 106.407V106.406L14.0498 66.2275C10.2569 60.4347 8.25 53.5924 8.25 46.5146C8.25018 27.5782 22.6234 12 40.5 12Z" fill="url(#paint0_linear_1484_25975)" stroke="white" stroke-width="3"/>
<path d="M46.1999 67.86H40.8749V57.945H45.7049C46.0649 57.945 46.3499 57.66 46.3499 57.3V56.7C46.3499 56.34 46.0649 56.055 45.7049 56.055H34.9649C34.6049 56.055 34.3199 56.34 34.3199 56.7V57.3C34.3199 57.66 34.6049 57.945 34.9649 57.945H39.7949V67.86H34.4699C34.1699 67.86 33.9299 68.1 33.9299 68.4C33.9299 68.7 34.1699 68.94 34.4699 68.94H46.1849C46.4849 68.94 46.7249 68.7 46.7249 68.4C46.7249 68.1 46.4849 67.86 46.1849 67.86H46.1999Z" fill="#F9F5FF"/>
<path d="M45.7201 30H34.9651C34.6088 30 34.3201 30.2888 34.3201 30.645V31.26C34.3201 31.6162 34.6088 31.905 34.9651 31.905H45.7201C46.0763 31.905 46.3651 31.6162 46.3651 31.26V30.645C46.3651 30.2888 46.0763 30 45.7201 30Z" fill="#F9F5FF"/>
<path d="M56.94 32.865H23.73C22.635 32.865 21.75 33.75 21.75 34.845V53.085C21.75 54.18 22.635 55.065 23.73 55.065H56.94C58.035 55.065 58.92 54.18 58.92 53.085V34.845C58.92 33.75 58.035 32.865 56.94 32.865ZM47.055 45.27L38.1 50.43C37.095 51 35.85 50.28 35.85 49.125V38.79C35.85 37.635 37.095 36.915 38.1 37.485L47.055 42.645C48.06 43.215 48.06 44.67 47.055 45.24V45.27Z" fill="#F9F5FF"/>
<defs>
<linearGradient id="paint0_linear_1484_25975" x1="40.5" y1="13.5" x2="40.5" y2="106.785" gradientUnits="userSpaceOnUse">
<stop stop-color="#F759AB"/>
<stop offset="1" stop-color="#EB2F96"/>
</linearGradient>
</defs>
</svg>
