<svg width="79" height="119" viewBox="0 0 79 119" fill="none" xmlns="http://www.w3.org/2000/svg">
<path d="M40.25 11.8875C58.1153 11.8875 72.5 27.3307 72.5 46.1277C72.4999 53.1495 70.4921 59.9349 66.6719 65.7234L43.4971 105.53L43.498 105.531C42.8198 106.702 41.5851 107.395 40.25 107.395C38.9149 107.395 37.6802 106.702 37.002 105.531V105.53L13.8105 65.699C10.0111 59.9496 8.00007 53.1561 8 46.1277C8 27.3307 22.3847 11.8875 40.25 11.8875Z" fill="url(#paint0_linear_1484_25982)" stroke="white" stroke-width="3"/>
<path d="M45.9499 67.2945H40.6249V57.4621H45.4549C45.8149 57.4621 46.0999 57.1795 46.0999 56.8225V56.2275C46.0999 55.8705 45.8149 55.5879 45.4549 55.5879H34.7149C34.3549 55.5879 34.0699 55.8705 34.0699 56.2275V56.8225C34.0699 57.1795 34.3549 57.4621 34.7149 57.4621H39.5449V67.2945H34.2199C33.9199 67.2945 33.6799 67.5325 33.6799 67.83C33.6799 68.1275 33.9199 68.3655 34.2199 68.3655H45.9349C46.2349 68.3655 46.4749 68.1275 46.4749 67.83C46.4749 67.5325 46.2349 67.2945 45.9349 67.2945H45.9499Z" fill="#F9F5FF"/>
<path d="M45.4701 29.75H34.7151C34.3588 29.75 34.0701 30.0364 34.0701 30.3896V30.9995C34.0701 31.3528 34.3588 31.6391 34.7151 31.6391H45.4701C45.8263 31.6391 46.1151 31.3528 46.1151 30.9995V30.3896C46.1151 30.0364 45.8263 29.75 45.4701 29.75Z" fill="#F9F5FF"/>
<path d="M56.69 32.5911H23.48C22.385 32.5911 21.5 33.4688 21.5 34.5546V52.6426C21.5 53.7285 22.385 54.6061 23.48 54.6061H56.69C57.785 54.6061 58.67 53.7285 58.67 52.6426V34.5546C58.67 33.4688 57.785 32.5911 56.69 32.5911ZM46.805 44.8928L37.85 50.0098C36.845 50.575 35.6 49.861 35.6 48.7156V38.4668C35.6 37.3214 36.845 36.6074 37.85 37.1726L46.805 42.2896C47.81 42.8549 47.81 44.2978 46.805 44.863V44.8928Z" fill="#F9F5FF"/>
<defs>
<linearGradient id="paint0_linear_1484_25982" x1="40.25" y1="13.3875" x2="40.25" y2="105.895" gradientUnits="userSpaceOnUse">
<stop stop-color="#9254DE"/>
<stop offset="1" stop-color="#722ED1"/>
</linearGradient>
</defs>
</svg>
