<svg width="78" height="120" viewBox="0 0 78 120" fill="none" xmlns="http://www.w3.org/2000/svg">
<path d="M39.75 11.25C58.09 11.25 72.7498 27.2149 72.75 46.5146C72.75 53.7246 70.7073 60.6989 66.8154 66.6543L43.6504 106.78C42.8397 108.191 41.3568 109.035 39.75 109.035C38.1433 109.035 36.6593 108.192 35.8486 106.781V106.78L12.6572 66.6152C8.79198 60.7018 6.75 53.7248 6.75 46.5146C6.75018 27.2149 21.41 11.25 39.75 11.25Z" fill="url(#paint0_linear_1484_26020)" stroke="white" stroke-width="4.5"/>
<path d="M53.5597 65.9401H24.4403C24.1957 65.9401 24 66.1352 24 66.3791C24 66.623 24.1957 66.8182 24.4403 66.8182H53.5597C53.8043 66.8182 54 66.623 54 66.3791C54 66.1352 53.8043 65.9401 53.5597 65.9401Z" fill="#F9F5FF"/>
<path d="M30.3349 61.5375H47.677C48.2518 61.5375 48.7043 61.0741 48.7043 60.5131V31.0244C48.7043 30.4512 48.2395 30 47.677 30H30.3349C29.7601 30 29.3076 30.4634 29.3076 31.0244V60.5009C29.3076 61.0741 29.7724 61.5253 30.3349 61.5253V61.5375ZM36.67 43.5248C36.67 42.9272 37.3182 42.5492 37.8441 42.854L42.5159 45.5492C43.0418 45.8541 43.0418 46.5981 42.5159 46.9029L37.8441 49.5981C37.3182 49.903 36.67 49.525 36.67 48.9274V43.5492V43.5248Z" fill="#F9F5FF"/>
<path d="M30.3349 65.2571H47.677C48.2518 65.2571 48.7043 64.7937 48.7043 64.2327V61.7327C48.7043 62.3058 48.2395 62.7571 47.677 62.7571H30.3349C29.7601 62.7571 29.3076 62.2936 29.3076 61.7327V64.2327C29.3076 64.8059 29.7724 65.2571 30.3349 65.2571Z" fill="#F9F5FF"/>
<defs>
<linearGradient id="paint0_linear_1484_26020" x1="39.75" y1="13.5" x2="39.75" y2="106.785" gradientUnits="userSpaceOnUse">
<stop stop-color="#52C41A"/>
<stop offset="1" stop-color="#389E0D"/>
</linearGradient>
</defs>
</svg>
