<svg width="79" height="120" viewBox="0 0 79 120" fill="none" xmlns="http://www.w3.org/2000/svg">
<path d="M40.5 11.25C58.84 11.25 73.4998 27.2149 73.5 46.5146C73.5 53.7246 71.4573 60.6989 67.5654 66.6543L44.4004 106.78C43.5897 108.191 42.1068 109.035 40.5 109.035C38.8933 109.035 37.4093 108.192 36.5986 106.781V106.78L13.4072 66.6152C9.54198 60.7018 7.5 53.7248 7.5 46.5146C7.50018 27.2149 22.16 11.25 40.5 11.25Z" fill="url(#paint0_linear_1484_26027)" stroke="white" stroke-width="4.5"/>
<path d="M54.3097 65.9401H25.1903C24.9457 65.9401 24.75 66.1352 24.75 66.3791C24.75 66.623 24.9457 66.8182 25.1903 66.8182H54.3097C54.5543 66.8182 54.75 66.623 54.75 66.3791C54.75 66.1352 54.5543 65.9401 54.3097 65.9401Z" fill="#F9F5FF"/>
<path d="M31.0852 61.5375H48.4272C49.002 61.5375 49.4545 61.0741 49.4545 60.5131V31.0244C49.4545 30.4512 48.9898 30 48.4272 30H31.0852C30.5104 30 30.0579 30.4634 30.0579 31.0244V60.5009C30.0579 61.0741 30.5226 61.5253 31.0852 61.5253V61.5375ZM37.4203 43.5248C37.4203 42.9272 38.0685 42.5492 38.5943 42.854L43.2662 45.5492C43.7921 45.8541 43.7921 46.5981 43.2662 46.9029L38.5943 49.5981C38.0685 49.903 37.4203 49.525 37.4203 48.9274V43.5492V43.5248Z" fill="#F9F5FF"/>
<path d="M31.0852 65.2571H48.4272C49.002 65.2571 49.4545 64.7937 49.4545 64.2327V61.7327C49.4545 62.3058 48.9898 62.7571 48.4272 62.7571H31.0852C30.5104 62.7571 30.0579 62.2936 30.0579 61.7327V64.2327C30.0579 64.8059 30.5226 65.2571 31.0852 65.2571Z" fill="#F9F5FF"/>
<defs>
<linearGradient id="paint0_linear_1484_26027" x1="40.5" y1="13.5" x2="40.5" y2="106.785" gradientUnits="userSpaceOnUse">
<stop stop-color="#F759AB"/>
<stop offset="1" stop-color="#EB2F96"/>
</linearGradient>
</defs>
</svg>
