<svg width="79" height="120" viewBox="0 0 79 120" fill="none" xmlns="http://www.w3.org/2000/svg">
<path d="M40.25 11.25C58.59 11.25 73.2498 27.2149 73.25 46.5146C73.25 53.7246 71.2073 60.6989 67.3154 66.6543L44.1504 106.78C43.3397 108.191 41.8568 109.035 40.25 109.035C38.6433 109.035 37.1593 108.192 36.3486 106.781V106.78L13.1572 66.6152C9.29198 60.7018 7.25 53.7248 7.25 46.5146C7.25018 27.2149 21.91 11.25 40.25 11.25Z" fill="url(#paint0_linear_1484_26034)" stroke="white" stroke-width="4.5"/>
<path d="M54.0597 65.9401H24.9403C24.6957 65.9401 24.5 66.1352 24.5 66.3791C24.5 66.623 24.6957 66.8182 24.9403 66.8182H54.0597C54.3043 66.8182 54.5 66.623 54.5 66.3791C54.5 66.1352 54.3043 65.9401 54.0597 65.9401Z" fill="#F9F5FF"/>
<path d="M30.8352 61.5375H48.1772C48.752 61.5375 49.2045 61.0741 49.2045 60.5131V31.0244C49.2045 30.4512 48.7398 30 48.1772 30H30.8352C30.2604 30 29.8079 30.4634 29.8079 31.0244V60.5009C29.8079 61.0741 30.2726 61.5253 30.8352 61.5253V61.5375ZM37.1703 43.5248C37.1703 42.9272 37.8185 42.5492 38.3443 42.854L43.0162 45.5492C43.5421 45.8541 43.5421 46.5981 43.0162 46.9029L38.3443 49.5981C37.8185 49.903 37.1703 49.525 37.1703 48.9274V43.5492V43.5248Z" fill="#F9F5FF"/>
<path d="M30.8352 65.2571H48.1772C48.752 65.2571 49.2045 64.7937 49.2045 64.2327V61.7326C49.2045 62.3058 48.7398 62.7571 48.1772 62.7571H30.8352C30.2604 62.7571 29.8079 62.2936 29.8079 61.7326V64.2327C29.8079 64.8059 30.2726 65.2571 30.8352 65.2571Z" fill="#F9F5FF"/>
<defs>
<linearGradient id="paint0_linear_1484_26034" x1="40.25" y1="13.5" x2="40.25" y2="106.785" gradientUnits="userSpaceOnUse">
<stop stop-color="#9254DE"/>
<stop offset="1" stop-color="#722ED1"/>
</linearGradient>
</defs>
</svg>
