<svg width="78" height="120" viewBox="0 0 78 120" fill="none" xmlns="http://www.w3.org/2000/svg">
<path d="M39.75 12C57.6266 12 71.9998 27.5782 72 46.5146C72 53.5884 69.9943 60.4251 66.1777 66.2588L43 106.406C42.3246 107.582 41.0912 108.285 39.75 108.285C38.4088 108.285 37.1745 107.583 36.499 106.407V106.406L13.2998 66.2275C9.50694 60.4347 7.5 53.5924 7.5 46.5146C7.50018 27.5782 21.8734 12 39.75 12Z" fill="url(#paint0_linear_1484_25672)" stroke="white" stroke-width="3"/>
<path d="M50.6099 68.3551H34.1549V33.9001C34.1549 33.9001 34.2299 33.9151 34.2599 33.9151H49.9649C50.3249 33.9151 50.6099 33.6301 50.6099 33.2701V32.6701C50.6099 32.3101 50.3249 32.0251 49.9649 32.0251H34.2599C34.2599 32.0251 34.1849 32.0401 34.1549 32.0401V30.9751C34.1549 30.6751 33.9149 30.4351 33.6149 30.4351C33.3149 30.4351 33.0749 30.6751 33.0749 30.9751V68.3551H31.6049C31.3049 68.3551 31.0649 68.5951 31.0649 68.8951C31.0649 69.1951 31.3049 69.4351 31.6049 69.4351H50.6099C50.9099 69.4351 51.1499 69.1951 51.1499 68.8951C51.1499 68.5951 50.9099 68.3551 50.6099 68.3551Z" fill="#F9F5FF"/>
<path d="M48.6147 34.635H37.1547C36.0297 34.635 35.1147 35.55 35.1147 36.675V44.655C35.1147 45.78 36.0297 46.695 37.1547 46.695H48.6147C49.7397 46.695 50.6547 45.78 50.6547 44.655V36.675C50.6547 35.55 49.7397 34.635 48.6147 34.635Z" fill="#F9F5FF"/>
<defs>
<linearGradient id="paint0_linear_1484_25672" x1="39.75" y1="13.5" x2="39.75" y2="106.785" gradientUnits="userSpaceOnUse">
<stop stop-color="#52C41A"/>
<stop offset="1" stop-color="#389E0D"/>
</linearGradient>
</defs>
</svg>
