<svg width="79" height="120" viewBox="0 0 79 120" fill="none" xmlns="http://www.w3.org/2000/svg">
<path d="M40.5 12C58.3766 12 72.7498 27.5782 72.75 46.5146C72.75 53.5884 70.7443 60.4251 66.9277 66.2588L43.75 106.406C43.0746 107.582 41.8412 108.285 40.5 108.285C39.1588 108.285 37.9245 107.583 37.249 106.407V106.406L14.0498 66.2275C10.2569 60.4347 8.25 53.5924 8.25 46.5146C8.25018 27.5782 22.6234 12 40.5 12Z" fill="url(#paint0_linear_1484_25678)" stroke="white" stroke-width="3"/>
<path d="M51.3599 68.3551H34.9049V33.9001C34.9049 33.9001 34.9799 33.9151 35.0099 33.9151H50.7149C51.0749 33.9151 51.3599 33.6301 51.3599 33.2701V32.6701C51.3599 32.3101 51.0749 32.0251 50.7149 32.0251H35.0099C35.0099 32.0251 34.9349 32.0401 34.9049 32.0401V30.9751C34.9049 30.6751 34.6649 30.4351 34.3649 30.4351C34.0649 30.4351 33.8249 30.6751 33.8249 30.9751V68.3551H32.3549C32.0549 68.3551 31.8149 68.5951 31.8149 68.8951C31.8149 69.1951 32.0549 69.4351 32.3549 69.4351H51.3599C51.6599 69.4351 51.8999 69.1951 51.8999 68.8951C51.8999 68.5951 51.6599 68.3551 51.3599 68.3551Z" fill="#F9F5FF"/>
<path d="M49.365 34.635H37.905C36.78 34.635 35.865 35.55 35.865 36.675V44.655C35.865 45.78 36.78 46.695 37.905 46.695H49.365C50.49 46.695 51.405 45.78 51.405 44.655V36.675C51.405 35.55 50.49 34.635 49.365 34.635Z" fill="#F9F5FF"/>
<defs>
<linearGradient id="paint0_linear_1484_25678" x1="40.5" y1="13.5" x2="40.5" y2="106.785" gradientUnits="userSpaceOnUse">
<stop stop-color="#F759AB"/>
<stop offset="1" stop-color="#EB2F96"/>
</linearGradient>
</defs>
</svg>
