<svg width="79" height="120" viewBox="0 0 79 120" fill="none" xmlns="http://www.w3.org/2000/svg">
<path d="M40.25 12C58.1266 12 72.4998 27.5782 72.5 46.5146C72.5 53.5884 70.4943 60.4251 66.6777 66.2588L43.5 106.406C42.8246 107.582 41.5912 108.285 40.25 108.285C38.9088 108.285 37.6745 107.583 36.999 106.407V106.406L13.7998 66.2275C10.0069 60.4347 8 53.5924 8 46.5146C8.00018 27.5782 22.3734 12 40.25 12Z" fill="url(#paint0_linear_1484_25684)" stroke="white" stroke-width="3"/>
<path d="M51.1099 68.3551H34.6549V33.9001C34.6549 33.9001 34.7299 33.9151 34.7599 33.9151H50.4649C50.8249 33.9151 51.1099 33.6301 51.1099 33.2701V32.6701C51.1099 32.3101 50.8249 32.0251 50.4649 32.0251H34.7599C34.7599 32.0251 34.6849 32.0401 34.6549 32.0401V30.9751C34.6549 30.6751 34.4149 30.4351 34.1149 30.4351C33.8149 30.4351 33.5749 30.6751 33.5749 30.9751V68.3551H32.1049C31.8049 68.3551 31.5649 68.5951 31.5649 68.8951C31.5649 69.1951 31.8049 69.4351 32.1049 69.4351H51.1099C51.4099 69.4351 51.6499 69.1951 51.6499 68.8951C51.6499 68.5951 51.4099 68.3551 51.1099 68.3551Z" fill="#F9F5FF"/>
<path d="M49.115 34.635H37.655C36.53 34.635 35.615 35.55 35.615 36.675V44.655C35.615 45.78 36.53 46.695 37.655 46.695H49.115C50.24 46.695 51.155 45.78 51.155 44.655V36.675C51.155 35.55 50.24 34.635 49.115 34.635Z" fill="#F9F5FF"/>
<defs>
<linearGradient id="paint0_linear_1484_25684" x1="40.25" y1="13.5" x2="40.25" y2="106.785" gradientUnits="userSpaceOnUse">
<stop stop-color="#9254DE"/>
<stop offset="1" stop-color="#722ED1"/>
</linearGradient>
</defs>
</svg>
