<svg width="78" height="119" viewBox="0 0 78 119" fill="none" xmlns="http://www.w3.org/2000/svg">
<path d="M39.75 11.8875C57.6153 11.8875 72 27.3307 72 46.1277C71.9999 53.1495 69.9921 59.9349 66.1719 65.7234L42.9971 105.53L42.998 105.531C42.3198 106.702 41.0851 107.395 39.75 107.395C38.4149 107.395 37.1802 106.702 36.502 105.531V105.53L13.3105 65.699C9.51112 59.9496 7.50007 53.1562 7.5 46.1277C7.5 27.3307 21.8847 11.8875 39.75 11.8875Z" fill="url(#paint0_linear_1484_25820)" stroke="white" stroke-width="3"/>
<path d="M52.9198 59.277H50.9398V41.5311C50.9398 41.2336 50.6998 40.9956 50.3998 40.9956C50.0998 40.9956 49.8598 41.2336 49.8598 41.5311H29.5348C29.4448 41.5311 29.3698 41.546 29.2948 41.5757V41.5311C29.2948 41.2336 29.0548 40.9956 28.7548 40.9956C28.4548 40.9956 28.2148 41.2336 28.2148 41.5311V59.277H26.2348C25.9348 59.277 25.6948 59.515 25.6948 59.8125C25.6948 60.11 25.9348 60.348 26.2348 60.348H52.9048C53.2048 60.348 53.4448 60.11 53.4448 59.8125C53.4448 59.515 53.2048 59.277 52.9048 59.277H52.9198ZM29.2948 43.1376C29.3698 43.1674 29.4598 43.1822 29.5348 43.1822H49.8598V59.277H29.2798V43.1227L29.2948 43.1376Z" fill="white"/>
<path d="M46.8597 44.045H32.3097C31.1997 44.045 30.2847 44.9375 30.2847 46.0531V53.8625C30.2847 54.9632 31.1847 55.8706 32.3097 55.8706H46.8597C47.9697 55.8706 48.8847 54.9781 48.8847 53.8625V46.0531C48.8847 44.9524 47.9847 44.045 46.8597 44.045Z" fill="white"/>
<defs>
<linearGradient id="paint0_linear_1484_25820" x1="39.75" y1="13.3875" x2="39.75" y2="105.895" gradientUnits="userSpaceOnUse">
<stop stop-color="#52C41A"/>
<stop offset="1" stop-color="#389E0D"/>
</linearGradient>
</defs>
</svg>
