<svg width="79" height="120" viewBox="0 0 79 120" fill="none" xmlns="http://www.w3.org/2000/svg">
<path d="M40.5 12C58.3766 12 72.7498 27.5782 72.75 46.5146C72.75 53.5884 70.7443 60.4251 66.9277 66.2588L43.75 106.406C43.0746 107.582 41.8412 108.285 40.5 108.285C39.1588 108.285 37.9245 107.583 37.249 106.407V106.406L14.0498 66.2275C10.2569 60.4347 8.25 53.5924 8.25 46.5146C8.25018 27.5782 22.6234 12 40.5 12Z" fill="url(#paint0_linear_1484_25826)" stroke="white" stroke-width="3"/>
<path d="M53.6701 59.7751H51.6901V41.8801C51.6901 41.5801 51.4501 41.3401 51.1501 41.3401C50.8501 41.3401 50.6101 41.5801 50.6101 41.8801H30.2851C30.1951 41.8801 30.1201 41.8951 30.0451 41.9251V41.8801C30.0451 41.5801 29.8051 41.3401 29.5051 41.3401C29.2051 41.3401 28.9651 41.5801 28.9651 41.8801V59.7751H26.9851C26.6851 59.7751 26.4451 60.0151 26.4451 60.3151C26.4451 60.6151 26.6851 60.8551 26.9851 60.8551H53.6551C53.9551 60.8551 54.1951 60.6151 54.1951 60.3151C54.1951 60.0151 53.9551 59.7751 53.6551 59.7751H53.6701ZM30.0451 43.5001C30.1201 43.5301 30.2101 43.5451 30.2851 43.5451H50.6101V59.7751H30.0301V43.4851L30.0451 43.5001Z" fill="white"/>
<path d="M47.6102 44.4151H33.0602C31.9502 44.4151 31.0352 45.3151 31.0352 46.4401V54.3151C31.0352 55.4251 31.9352 56.3401 33.0602 56.3401H47.6102C48.7202 56.3401 49.6352 55.4401 49.6352 54.3151V46.4401C49.6352 45.3301 48.7352 44.4151 47.6102 44.4151Z" fill="white"/>
<defs>
<linearGradient id="paint0_linear_1484_25826" x1="40.5" y1="13.5" x2="40.5" y2="106.785" gradientUnits="userSpaceOnUse">
<stop stop-color="#F759AB"/>
<stop offset="1" stop-color="#EB2F96"/>
</linearGradient>
</defs>
</svg>
