<svg width="79" height="119" viewBox="0 0 79 119" fill="none" xmlns="http://www.w3.org/2000/svg">
<path d="M40.25 11.8875C58.1153 11.8875 72.5 27.3307 72.5 46.1277C72.4999 53.1495 70.4921 59.9349 66.6719 65.7234L43.4971 105.53L43.498 105.531C42.8198 106.702 41.5851 107.395 40.25 107.395C38.9149 107.395 37.6802 106.702 37.002 105.531V105.53L13.8105 65.699C10.0111 59.9496 8.00007 53.1562 8 46.1277C8 27.3307 22.3847 11.8875 40.25 11.8875Z" fill="url(#paint0_linear_1484_25832)" stroke="white" stroke-width="3"/>
<path d="M53.4201 59.277H51.4401V41.5311C51.4401 41.2336 51.2001 40.9956 50.9001 40.9956C50.6001 40.9956 50.3601 41.2336 50.3601 41.5311H30.0351C29.9451 41.5311 29.8701 41.546 29.7951 41.5757V41.5311C29.7951 41.2336 29.5551 40.9956 29.2551 40.9956C28.9551 40.9956 28.7151 41.2336 28.7151 41.5311V59.277H26.7351C26.4351 59.277 26.1951 59.515 26.1951 59.8125C26.1951 60.11 26.4351 60.348 26.7351 60.348H53.4051C53.7051 60.348 53.9451 60.11 53.9451 59.8125C53.9451 59.515 53.7051 59.277 53.4051 59.277H53.4201ZM29.7951 43.1376C29.8701 43.1674 29.9601 43.1822 30.0351 43.1822H50.3601V59.277H29.7801V43.1227L29.7951 43.1376Z" fill="white"/>
<path d="M47.3602 44.045H32.8102C31.7002 44.045 30.7852 44.9375 30.7852 46.0531V53.8625C30.7852 54.9632 31.6852 55.8706 32.8102 55.8706H47.3602C48.4702 55.8706 49.3852 54.9781 49.3852 53.8625V46.0531C49.3852 44.9524 48.4852 44.045 47.3602 44.045Z" fill="white"/>
<defs>
<linearGradient id="paint0_linear_1484_25832" x1="40.25" y1="13.3875" x2="40.25" y2="105.895" gradientUnits="userSpaceOnUse">
<stop stop-color="#9254DE"/>
<stop offset="1" stop-color="#722ED1"/>
</linearGradient>
</defs>
</svg>
