<svg width="78" height="120" viewBox="0 0 78 120" fill="none" xmlns="http://www.w3.org/2000/svg">
<path d="M39.75 12C57.6266 12 71.9998 27.5782 72 46.5146C72 53.5884 69.9943 60.4251 66.1777 66.2588L43 106.406C42.3246 107.582 41.0912 108.285 39.75 108.285C38.4088 108.285 37.1745 107.583 36.499 106.407V106.406L13.2998 66.2275C9.50694 60.4347 7.5 53.5924 7.5 46.5146C7.50018 27.5782 21.8734 12 39.75 12Z" fill="url(#paint0_linear_1484_25696)" stroke="white" stroke-width="3"/>
<path d="M48.9757 68.1835H40.2816V53.9289H45.6262C45.9757 53.9289 46.2524 53.7134 46.2524 53.4412V52.9876C46.2524 52.7155 45.9757 52.5 45.6262 52.5H33.8738C33.5243 52.5 33.2476 52.7155 33.2476 52.9876V53.4412C33.2476 53.7134 33.5243 53.9289 33.8738 53.9289H39.2184V68.1835H30.5243C30.233 68.1835 30 68.3649 30 68.5918C30 68.8186 30.233 69 30.5243 69H48.9757C49.267 69 49.5 68.8186 49.5 68.5918C49.5 68.3649 49.267 68.1835 48.9757 68.1835Z" fill="#F9F5FF"/>
<path d="M29.7988 51H36.9512C38.098 51 39.1086 50.4678 39.75 49.6315C40.3914 50.4678 41.4021 51 42.5488 51H49.7012C51.2367 51 52.5 49.7645 52.5 48.2629V35.7371C52.5 34.2355 51.2367 33 49.7012 33H42.5488C41.4021 33 40.3914 33.5322 39.75 34.3685C39.1086 33.5322 38.098 33 36.9512 33H29.7988C28.2633 33 27 34.2355 27 35.7371V48.2629C27 49.7645 28.2633 51 29.7988 51Z" fill="#F9F5FF"/>
<defs>
<linearGradient id="paint0_linear_1484_25696" x1="39.75" y1="13.5" x2="39.75" y2="106.785" gradientUnits="userSpaceOnUse">
<stop stop-color="#52C41A"/>
<stop offset="1" stop-color="#389E0D"/>
</linearGradient>
</defs>
</svg>
