<svg width="79" height="120" viewBox="0 0 79 120" fill="none" xmlns="http://www.w3.org/2000/svg">
<path d="M40.5 12C58.3766 12 72.7498 27.5782 72.75 46.5146C72.75 53.5884 70.7443 60.4251 66.9277 66.2588L43.75 106.406C43.0746 107.582 41.8412 108.285 40.5 108.285C39.1588 108.285 37.9245 107.583 37.249 106.407V106.406L14.0498 66.2275C10.2569 60.4347 8.25 53.5924 8.25 46.5146C8.25018 27.5782 22.6234 12 40.5 12Z" fill="url(#paint0_linear_1484_25702)" stroke="white" stroke-width="3"/>
<path d="M49.7257 68.1835H41.0316V53.9289H46.3762C46.7257 53.9289 47.0024 53.7134 47.0024 53.4412V52.9876C47.0024 52.7155 46.7257 52.5 46.3762 52.5H34.6238C34.2743 52.5 33.9976 52.7155 33.9976 52.9876V53.4412C33.9976 53.7134 34.2743 53.9289 34.6238 53.9289H39.9684V68.1835H31.2743C30.983 68.1835 30.75 68.3649 30.75 68.5918C30.75 68.8186 30.983 69 31.2743 69H49.7257C50.017 69 50.25 68.8186 50.25 68.5918C50.25 68.3649 50.017 68.1835 49.7257 68.1835Z" fill="#F9F5FF"/>
<path d="M30.5488 51H37.7012C38.848 51 39.8586 50.4678 40.5 49.6315C41.1414 50.4678 42.1521 51 43.2988 51H50.4512C51.9867 51 53.25 49.7645 53.25 48.2629V35.7371C53.25 34.2355 51.9867 33 50.4512 33H43.2988C42.1521 33 41.1414 33.5322 40.5 34.3685C39.8586 33.5322 38.848 33 37.7012 33H30.5488C29.0133 33 27.75 34.2355 27.75 35.7371V48.2629C27.75 49.7645 29.0133 51 30.5488 51Z" fill="#F9F5FF"/>
<defs>
<linearGradient id="paint0_linear_1484_25702" x1="40.5" y1="13.5" x2="40.5" y2="106.785" gradientUnits="userSpaceOnUse">
<stop stop-color="#F759AB"/>
<stop offset="1" stop-color="#EB2F96"/>
</linearGradient>
</defs>
</svg>
