<svg width="79" height="120" viewBox="0 0 79 120" fill="none" xmlns="http://www.w3.org/2000/svg">
<path d="M40.25 12C58.1266 12 72.4998 27.5782 72.5 46.5146C72.5 53.5884 70.4943 60.4251 66.6777 66.2588L43.5 106.406C42.8246 107.582 41.5912 108.285 40.25 108.285C38.9088 108.285 37.6745 107.583 36.999 106.407V106.406L13.7998 66.2275C10.0069 60.4347 8 53.5924 8 46.5146C8.00018 27.5782 22.3734 12 40.25 12Z" fill="url(#paint0_linear_1484_25708)" stroke="white" stroke-width="3"/>
<path d="M49.4757 68.1835H40.7816V53.9289H46.1262C46.4757 53.9289 46.7524 53.7134 46.7524 53.4412V52.9876C46.7524 52.7155 46.4757 52.5 46.1262 52.5H34.3738C34.0243 52.5 33.7476 52.7155 33.7476 52.9876V53.4412C33.7476 53.7134 34.0243 53.9289 34.3738 53.9289H39.7184V68.1835H31.0243C30.733 68.1835 30.5 68.3649 30.5 68.5918C30.5 68.8186 30.733 69 31.0243 69H49.4757C49.767 69 50 68.8186 50 68.5918C50 68.3649 49.767 68.1835 49.4757 68.1835Z" fill="#F9F5FF"/>
<path d="M30.2988 51H37.4512C38.598 51 39.6086 50.4678 40.25 49.6315C40.8914 50.4678 41.9021 51 43.0488 51H50.2012C51.7367 51 53 49.7645 53 48.2629V35.7371C53 34.2355 51.7367 33 50.2012 33H43.0488C41.9021 33 40.8914 33.5322 40.25 34.3685C39.6086 33.5322 38.598 33 37.4512 33H30.2988C28.7633 33 27.5 34.2355 27.5 35.7371V48.2629C27.5 49.7645 28.7633 51 30.2988 51Z" fill="#F9F5FF"/>
<defs>
<linearGradient id="paint0_linear_1484_25708" x1="40.25" y1="13.5" x2="40.25" y2="106.785" gradientUnits="userSpaceOnUse">
<stop stop-color="#9254DE"/>
<stop offset="1" stop-color="#722ED1"/>
</linearGradient>
</defs>
</svg>
