<svg width="78" height="120" viewBox="0 0 78 120" fill="none" xmlns="http://www.w3.org/2000/svg">
<path d="M39.75 12C57.6266 12 71.9998 27.5782 72 46.5146C72 53.5884 69.9943 60.4251 66.1777 66.2588L43 106.406C42.3246 107.582 41.0912 108.285 39.75 108.285C38.4088 108.285 37.1745 107.583 36.499 106.407V106.406L13.2998 66.2275C9.50694 60.4347 7.5 53.5924 7.5 46.5146C7.50018 27.5782 21.8734 12 39.75 12Z" fill="url(#paint0_linear_1484_25632)" stroke="white" stroke-width="3"/>
<path d="M46.0949 32.22H45.7799V31.92C45.7799 31.56 45.4949 31.275 45.1349 31.275H34.3949C34.0349 31.275 33.7499 31.56 33.7499 31.92V32.22H33.4349C32.2499 32.22 31.2749 33.18 31.2749 34.38V54.27C31.2749 55.455 32.2349 56.43 33.4349 56.43H33.7499V56.73C33.7499 57.09 34.0349 57.375 34.3949 57.375H39.2249V67.605H33.8999C33.5999 67.605 33.3599 67.845 33.3599 68.145C33.3599 68.445 33.5999 68.685 33.8999 68.685H45.6149C45.9149 68.685 46.1549 68.445 46.1549 68.145C46.1549 67.845 45.9149 67.605 45.6149 67.605H40.2899V57.375H45.1199C45.4799 57.375 45.7649 57.09 45.7649 56.73V56.43H46.0799C47.2649 56.43 48.2399 55.47 48.2399 54.27V34.38C48.2399 33.195 47.2799 32.22 46.0799 32.22H46.0949Z" fill="#F9F5FF"/>
<defs>
<linearGradient id="paint0_linear_1484_25632" x1="39.75" y1="13.5" x2="39.75" y2="106.785" gradientUnits="userSpaceOnUse">
<stop stop-color="#52C41A"/>
<stop offset="1" stop-color="#389E0D"/>
</linearGradient>
</defs>
</svg>
