<svg width="79" height="120" viewBox="0 0 79 120" fill="none" xmlns="http://www.w3.org/2000/svg">
<path d="M40.5 12C58.3766 12 72.7498 27.5782 72.75 46.5146C72.75 53.5884 70.7443 60.4251 66.9277 66.2588L43.75 106.406C43.0746 107.582 41.8412 108.285 40.5 108.285C39.1588 108.285 37.9245 107.583 37.249 106.407V106.406L14.0498 66.2275C10.2569 60.4347 8.25 53.5924 8.25 46.5146C8.25018 27.5782 22.6234 12 40.5 12Z" fill="url(#paint0_linear_1484_25636)" stroke="white" stroke-width="3"/>
<path d="M46.8449 32.22H46.5299V31.92C46.5299 31.56 46.2449 31.275 45.8849 31.275H35.1449C34.7849 31.275 34.4999 31.56 34.4999 31.92V32.22H34.1849C32.9999 32.22 32.0249 33.18 32.0249 34.38V54.27C32.0249 55.455 32.9849 56.43 34.1849 56.43H34.4999V56.73C34.4999 57.09 34.7849 57.375 35.1449 57.375H39.9749V67.605H34.6499C34.3499 67.605 34.1099 67.845 34.1099 68.145C34.1099 68.445 34.3499 68.685 34.6499 68.685H46.3649C46.6649 68.685 46.9049 68.445 46.9049 68.145C46.9049 67.845 46.6649 67.605 46.3649 67.605H41.0399V57.375H45.8699C46.2299 57.375 46.5149 57.09 46.5149 56.73V56.43H46.8299C48.0149 56.43 48.9899 55.47 48.9899 54.27V34.38C48.9899 33.195 48.0299 32.22 46.8299 32.22H46.8449Z" fill="#F9F5FF"/>
<defs>
<linearGradient id="paint0_linear_1484_25636" x1="40.5" y1="13.5" x2="40.5" y2="106.785" gradientUnits="userSpaceOnUse">
<stop stop-color="#F759AB"/>
<stop offset="1" stop-color="#EB2F96"/>
</linearGradient>
</defs>
</svg>
