<svg width="79" height="120" viewBox="0 0 79 120" fill="none" xmlns="http://www.w3.org/2000/svg">
<path d="M40.25 12C58.1266 12 72.4998 27.5782 72.5 46.5146C72.5 53.5884 70.4943 60.4251 66.6777 66.2588L43.5 106.406C42.8246 107.582 41.5912 108.285 40.25 108.285C38.9088 108.285 37.6745 107.583 36.999 106.407V106.406L13.7998 66.2275C10.0069 60.4347 8 53.5924 8 46.5146C8.00018 27.5782 22.3734 12 40.25 12Z" fill="url(#paint0_linear_1484_25640)" stroke="white" stroke-width="3"/>
<path d="M46.5949 32.22H46.2799V31.92C46.2799 31.56 45.9949 31.275 45.6349 31.275H34.8949C34.5349 31.275 34.2499 31.56 34.2499 31.92V32.22H33.9349C32.7499 32.22 31.7749 33.18 31.7749 34.38V54.27C31.7749 55.455 32.7349 56.43 33.9349 56.43H34.2499V56.73C34.2499 57.09 34.5349 57.375 34.8949 57.375H39.7249V67.605H34.3999C34.0999 67.605 33.8599 67.845 33.8599 68.145C33.8599 68.445 34.0999 68.685 34.3999 68.685H46.1149C46.4149 68.685 46.6549 68.445 46.6549 68.145C46.6549 67.845 46.4149 67.605 46.1149 67.605H40.7899V57.375H45.6199C45.9799 57.375 46.2649 57.09 46.2649 56.73V56.43H46.5799C47.7649 56.43 48.7399 55.47 48.7399 54.27V34.38C48.7399 33.195 47.7799 32.22 46.5799 32.22H46.5949Z" fill="#F9F5FF"/>
<defs>
<linearGradient id="paint0_linear_1484_25640" x1="40.25" y1="13.5" x2="40.25" y2="106.785" gradientUnits="userSpaceOnUse">
<stop stop-color="#9254DE"/>
<stop offset="1" stop-color="#722ED1"/>
</linearGradient>
</defs>
</svg>
