<svg width="79" height="120" viewBox="0 0 79 120" fill="none" xmlns="http://www.w3.org/2000/svg">
<path d="M40.25 12C58.1266 12 72.4998 27.5782 72.5 46.5146C72.5 53.5884 70.4943 60.4251 66.6777 66.2588L43.5 106.406C42.8246 107.582 41.5912 108.285 40.25 108.285C38.9088 108.285 37.6745 107.583 36.999 106.407V106.406L13.7998 66.2275C10.0069 60.4347 8 53.5924 8 46.5146C8.00018 27.5782 22.3734 12 40.25 12Z" fill="url(#paint0_linear_1484_25952)" stroke="white" stroke-width="3"/>
<path d="M33.0969 38H22.633C22.0092 38 21.5 38.4734 21.5 39.0464V58.9536C21.5 59.5391 22.0092 60 22.633 60H33.0969C33.7207 60 34.2298 59.5266 34.2298 58.9536V39.0464C34.2298 38.4609 33.7207 38 33.0969 38Z" fill="white"/>
<path d="M40.7729 53.2854L41.6004 54.1076L43.8281 53.3726L41.4986 51.0804L40.7729 53.2854Z" fill="white"/>
<path d="M49.3782 49.7848C48.9072 49.7848 48.449 49.9343 48.0671 50.2458C47.7361 50.5323 47.4942 50.9683 47.4306 51.4168C47.3287 52.1019 47.6597 52.8245 48.2708 53.2231C48.4872 53.3726 48.7672 53.4723 48.9964 53.5096C49.0727 53.5096 49.1364 53.5346 49.1491 53.5346C49.2128 53.5346 49.4801 53.5346 49.5819 53.5346C50.0911 53.4598 50.5239 53.2231 50.8422 52.8369C50.9822 52.675 51.1477 52.3511 51.1986 52.1642C51.3896 51.4168 51.1477 50.6569 50.5494 50.1959C50.2057 49.9343 49.7983 49.7973 49.391 49.7848H49.3782Z" fill="white"/>
<path d="M56.5198 39.4451H35.0828V58.8041H56.5198C57.4364 58.8041 58.1874 58.0317 58.1874 57.0725V41.1642C58.1874 40.205 57.4364 39.4326 56.5198 39.4326V39.4451ZM44.9993 53.9456L38.9017 55.9513L40.8748 49.9966L48.6146 42.4224C49.162 41.8868 50.0403 41.8868 50.5877 42.4224L52.7645 44.5527C53.2737 45.051 53.2737 45.8482 52.7645 46.3465L50.7532 48.3148L50.6005 47.1812L51.4406 46.359C51.9498 45.8607 51.9498 45.0634 51.4406 44.5651L50.5877 43.7305C50.0403 43.1948 49.162 43.1948 48.6146 43.7305L42.5043 49.7101C42.2242 49.9841 42.2115 50.4451 42.5043 50.7316L44.732 52.949H44.7447C44.7447 52.949 45.4703 53.0861 45.8395 53.1608L45.012 53.9706L44.9993 53.9456ZM53.7065 52.1767C53.6556 52.2763 53.6047 52.2888 53.0828 52.3262C52.8282 52.3511 52.599 52.3635 52.5863 52.3635C52.5736 52.3635 52.5481 52.4258 52.5099 52.5379C52.4463 52.7497 52.3699 52.9366 52.2426 53.1857C52.1917 53.2854 52.1408 53.3851 52.1408 53.3975C52.1408 53.41 52.2808 53.5844 52.4717 53.7962C52.8282 54.1948 52.8409 54.2322 52.79 54.3443C52.7645 54.4066 52.2553 54.9298 52.1408 55.0045C52.0517 55.0668 51.9498 55.0668 51.8734 55.0045C51.848 54.9796 51.6698 54.8301 51.4788 54.6806C51.3006 54.5311 51.1351 54.4066 51.1224 54.4066C51.1096 54.4066 51.0078 54.4564 50.906 54.5062C50.6514 54.6308 50.4604 54.718 50.244 54.7678C50.1294 54.7928 50.0658 54.8177 50.0658 54.8426C50.0658 54.855 50.0403 55.0793 50.0149 55.3284C49.9767 55.8392 49.964 55.889 49.8621 55.9388C49.8112 55.9638 49.7603 55.9638 49.3402 55.9638C48.9201 55.9638 48.8819 55.9638 48.8183 55.9388C48.7164 55.889 48.7037 55.8392 48.6655 55.3284C48.6401 55.0793 48.6273 54.855 48.6146 54.8426C48.6146 54.8301 48.5637 54.8052 48.4618 54.7803C48.2582 54.7305 48.0036 54.6308 47.7617 54.5062L47.558 54.3941L47.1761 54.7056C46.7688 55.0419 46.7178 55.0793 46.6033 55.0419C46.5142 55.017 45.9413 54.4689 45.8904 54.3567C45.8268 54.2197 45.8268 54.2322 46.2596 53.7339C46.4123 53.5595 46.5269 53.41 46.5269 53.3975C46.5269 53.3851 46.476 53.2854 46.4123 53.1733C46.285 52.9366 46.2087 52.7373 46.145 52.513C46.1195 52.4258 46.0941 52.3635 46.0814 52.3635C46.0686 52.3635 45.8395 52.3386 45.5849 52.3262C45.063 52.2888 45.012 52.2763 44.9611 52.1767C44.9357 52.1268 44.9357 52.077 44.9357 51.6659C44.9357 51.2548 44.9357 51.2174 44.9611 51.1552C45.012 51.0555 45.063 51.043 45.5976 51.0057C45.8649 50.9807 46.0941 50.9683 46.0941 50.9558C46.0941 50.9434 46.1323 50.8811 46.1577 50.8063C46.2214 50.5821 46.3105 50.3828 46.4251 50.1586C46.4887 50.0464 46.5396 49.9468 46.5396 49.9343C46.5396 49.9219 46.4123 49.7724 46.2596 49.5855C45.9031 49.1869 45.9031 49.1744 45.8777 49.0997C45.8522 49 45.9031 48.9377 46.2214 48.6263C46.5396 48.3148 46.616 48.2525 46.7178 48.2775C46.7815 48.2899 46.7942 48.3024 47.2143 48.6512C47.3925 48.8007 47.558 48.9253 47.5707 48.9253C47.5835 48.9253 47.6853 48.8754 47.7999 48.8131C48.029 48.701 48.2454 48.6138 48.4618 48.5515C48.5382 48.5266 48.6146 48.5017 48.6146 48.4892C48.6146 48.4892 48.6528 48.2525 48.6655 48.0034C48.7037 47.4802 48.7164 47.4428 48.8183 47.3805C48.8692 47.3556 48.9201 47.3556 49.3402 47.3556C49.7603 47.3556 49.7985 47.3556 49.8621 47.3805C49.964 47.4304 49.9767 47.4802 50.0149 47.9909C50.0403 48.2401 50.0531 48.4643 50.0531 48.4768C50.0531 48.4892 50.104 48.5142 50.1804 48.5391C50.384 48.5889 50.6514 48.6886 50.8805 48.8131C50.9951 48.8754 51.1096 48.9253 51.1096 48.9253C51.1096 48.9253 51.3006 48.7758 51.517 48.6014C51.9371 48.2526 51.9625 48.2401 52.0898 48.2899C52.1917 48.3398 52.7645 48.9003 52.79 48.9875C52.8282 49.0997 52.79 49.1495 52.459 49.5357C52.2808 49.735 52.1408 49.9094 52.1408 49.9219C52.1408 49.9343 52.1917 50.034 52.2553 50.1461C52.3826 50.3828 52.4717 50.607 52.5227 50.7939C52.5354 50.8686 52.5609 50.9309 52.5736 50.9434C52.5863 50.9558 52.7645 50.9807 53.0828 51.0057C53.6174 51.043 53.6556 51.0555 53.7193 51.1552C53.7447 51.205 53.7447 51.2548 53.7447 51.6659C53.7447 52.077 53.7447 52.1144 53.7193 52.1767H53.7065Z" fill="white"/>
<defs>
<linearGradient id="paint0_linear_1484_25952" x1="40.25" y1="13.5" x2="40.25" y2="106.785" gradientUnits="userSpaceOnUse">
<stop stop-color="#9254DE"/>
<stop offset="1" stop-color="#722ED1"/>
</linearGradient>
</defs>
</svg>
