<svg width="78" height="119" viewBox="0 0 78 119" fill="none" xmlns="http://www.w3.org/2000/svg">
<path d="M39.75 11.8875C57.6153 11.8875 72 27.3307 72 46.1277C71.9999 53.1495 69.9921 59.9349 66.1719 65.7234L42.9971 105.53L42.998 105.531C42.3198 106.702 41.0851 107.395 39.75 107.395C38.4149 107.395 37.1802 106.702 36.502 105.531V105.53L13.3105 65.699C9.51112 59.9496 7.50007 53.1562 7.5 46.1277C7.5 27.3307 21.8847 11.8875 39.75 11.8875Z" fill="url(#paint0_linear_1484_25804)" stroke="white" stroke-width="3"/>
<path d="M52.2001 37.3511H51.9151V37.0834C51.9151 36.771 51.6601 36.5181 51.3451 36.5181H48.2101V34.1976L51.9301 32.7696C52.1551 32.6804 52.3051 32.487 52.3501 32.2639C52.3801 32.0259 52.2901 31.8028 52.1101 31.654L47.9701 28.3815C47.9701 28.3815 47.9251 28.3666 47.9101 28.3518C47.8651 28.322 47.8351 28.3071 47.7901 28.2923C47.7601 28.2923 47.7151 28.2625 47.6851 28.2625C47.6401 28.2625 47.5951 28.2625 47.5501 28.2625C47.5051 28.2625 47.4601 28.2625 47.4151 28.2774C47.4001 28.2774 47.3701 28.2774 47.3551 28.2774L31.7551 33.4093C31.7551 33.4093 31.6951 33.439 31.6651 33.4539C31.6351 33.4539 31.6051 33.4688 31.5901 33.4985H31.5751L26.8801 36.7264C26.5801 36.9346 26.5051 37.3363 26.7151 37.6338C26.9251 37.9313 27.3301 38.0056 27.6301 37.7974L31.3051 35.2686V39.7014H28.0201C27.6901 39.7014 27.4201 39.9691 27.4201 40.2964V40.5641H27.1201C26.0251 40.5641 25.1401 41.4418 25.1401 42.5276V55.7366C25.1401 56.8225 26.0251 57.7001 27.1201 57.7001H27.4201V57.9679C27.4201 58.2951 27.6901 58.5629 28.0201 58.5629H31.4701V65.9111H26.5801C26.3101 65.9111 26.0851 66.1343 26.0851 66.402C26.0851 66.6698 26.3101 66.8929 26.5801 66.8929H37.3501C37.6201 66.8929 37.8451 66.6698 37.8451 66.402C37.8451 66.1343 37.6201 65.9111 37.3501 65.9111H32.4601V58.5629H35.9101C36.2401 58.5629 36.5101 58.2951 36.5101 57.9679V57.7001H36.8101C37.9051 57.7001 38.7901 56.8225 38.7901 55.7366V42.5276C38.7901 41.4418 37.9051 40.5641 36.8101 40.5641H36.5101V40.2964C36.5101 39.9691 36.2401 39.7014 35.9101 39.7014H32.6251V35.2984L36.7351 38.2734C36.8551 38.3626 36.9901 38.3924 37.1251 38.3924C37.2001 38.3924 37.2901 38.3924 37.3651 38.3478L46.9201 34.6885V36.5033H43.8001C43.4851 36.5033 43.2301 36.7561 43.2301 37.0685V37.3363H42.9451C41.8951 37.3363 41.0401 38.1841 41.0401 39.2254V51.9138C41.0401 52.955 41.8951 53.8029 42.9451 53.8029H43.2301V54.0706C43.2301 54.383 43.4851 54.6359 43.8001 54.6359H47.1151V60.7495H42.4201C42.1501 60.7495 41.9401 60.9578 41.9401 61.2255C41.9401 61.4933 42.1501 61.7015 42.4201 61.7015H52.7551C53.0251 61.7015 53.2351 61.4933 53.2351 61.2255C53.2351 60.9578 53.0251 60.7495 52.7551 60.7495H48.0601V54.6359H51.3751C51.6901 54.6359 51.9451 54.383 51.9451 54.0706V53.8029H52.2301C53.2801 53.8029 54.1351 52.955 54.1351 51.9138V39.2403C54.1351 38.199 53.2801 37.3511 52.2301 37.3511H52.2001Z" fill="white"/>
<defs>
<linearGradient id="paint0_linear_1484_25804" x1="39.75" y1="13.3875" x2="39.75" y2="105.895" gradientUnits="userSpaceOnUse">
<stop stop-color="#52C41A"/>
<stop offset="1" stop-color="#389E0D"/>
</linearGradient>
</defs>
</svg>
