<svg width="79" height="120" viewBox="0 0 79 120" fill="none" xmlns="http://www.w3.org/2000/svg">
<path d="M40.5 12C58.3766 12 72.7498 27.5782 72.75 46.5146C72.75 53.5884 70.7443 60.4251 66.9277 66.2588L43.75 106.406C43.0746 107.582 41.8412 108.285 40.5 108.285C39.1588 108.285 37.9245 107.583 37.249 106.407V106.406L14.0498 66.2275C10.2569 60.4347 8.25 53.5924 8.25 46.5146C8.25018 27.5782 22.6234 12 40.5 12Z" fill="url(#paint0_linear_1484_25808)" stroke="white" stroke-width="3"/>
<path d="M52.9501 37.665H52.6651V37.395C52.6651 37.08 52.4101 36.825 52.0951 36.825H48.9601V34.485L52.6801 33.045C52.9051 32.955 53.0551 32.76 53.1001 32.535C53.1301 32.295 53.0401 32.07 52.8601 31.92L48.7201 28.62C48.7201 28.62 48.6751 28.605 48.6601 28.59C48.6151 28.56 48.5851 28.545 48.5401 28.53C48.5101 28.53 48.4651 28.5 48.4351 28.5C48.3901 28.5 48.3451 28.5 48.3001 28.5C48.2551 28.5 48.2101 28.5 48.1651 28.515C48.1501 28.515 48.1201 28.515 48.1051 28.515L32.5051 33.69C32.5051 33.69 32.4451 33.72 32.4151 33.735C32.3851 33.735 32.3551 33.75 32.3401 33.78H32.3251L27.6301 37.035C27.3301 37.245 27.2551 37.65 27.4651 37.95C27.6751 38.25 28.0801 38.325 28.3801 38.115L32.0551 35.565V40.035H28.7701C28.4401 40.035 28.1701 40.305 28.1701 40.635V40.905H27.8701C26.7751 40.905 25.8901 41.79 25.8901 42.885V56.205C25.8901 57.3 26.7751 58.185 27.8701 58.185H28.1701V58.455C28.1701 58.785 28.4401 59.055 28.7701 59.055H32.2201V66.465H27.3301C27.0601 66.465 26.8351 66.69 26.8351 66.96C26.8351 67.23 27.0601 67.455 27.3301 67.455H38.1001C38.3701 67.455 38.5951 67.23 38.5951 66.96C38.5951 66.69 38.3701 66.465 38.1001 66.465H33.2101V59.055H36.6601C36.9901 59.055 37.2601 58.785 37.2601 58.455V58.185H37.5601C38.6551 58.185 39.5401 57.3 39.5401 56.205V42.885C39.5401 41.79 38.6551 40.905 37.5601 40.905H37.2601V40.635C37.2601 40.305 36.9901 40.035 36.6601 40.035H33.3751V35.595L37.4851 38.595C37.6051 38.685 37.7401 38.715 37.8751 38.715C37.9501 38.715 38.0401 38.715 38.1151 38.67L47.6701 34.98V36.81H44.5501C44.2351 36.81 43.9801 37.065 43.9801 37.38V37.65H43.6951C42.6451 37.65 41.7901 38.505 41.7901 39.555V52.35C41.7901 53.4 42.6451 54.255 43.6951 54.255H43.9801V54.525C43.9801 54.84 44.2351 55.095 44.5501 55.095H47.8651V61.26H43.1701C42.9001 61.26 42.6901 61.47 42.6901 61.74C42.6901 62.01 42.9001 62.22 43.1701 62.22H53.5051C53.7751 62.22 53.9851 62.01 53.9851 61.74C53.9851 61.47 53.7751 61.26 53.5051 61.26H48.8101V55.095H52.1251C52.4401 55.095 52.6951 54.84 52.6951 54.525V54.255H52.9801C54.0301 54.255 54.8851 53.4 54.8851 52.35V39.57C54.8851 38.52 54.0301 37.665 52.9801 37.665H52.9501Z" fill="white"/>
<defs>
<linearGradient id="paint0_linear_1484_25808" x1="40.5" y1="13.5" x2="40.5" y2="106.785" gradientUnits="userSpaceOnUse">
<stop stop-color="#F759AB"/>
<stop offset="1" stop-color="#EB2F96"/>
</linearGradient>
</defs>
</svg>
