<svg width="79" height="119" viewBox="0 0 79 119" fill="none" xmlns="http://www.w3.org/2000/svg">
<path d="M40.25 11.8875C58.1153 11.8875 72.5 27.3307 72.5 46.1277C72.4999 53.1495 70.4921 59.9349 66.6719 65.7234L43.4971 105.53L43.498 105.531C42.8198 106.702 41.5851 107.395 40.25 107.395C38.9149 107.395 37.6802 106.702 37.002 105.531V105.53L13.8105 65.699C10.0111 59.9496 8.00007 53.1562 8 46.1277C8 27.3307 22.3847 11.8875 40.25 11.8875Z" fill="url(#paint0_linear_1484_25812)" stroke="white" stroke-width="3"/>
<path d="M52.7001 37.3511H52.4151V37.0834C52.4151 36.771 52.1601 36.5181 51.8451 36.5181H48.7101V34.1976L52.4301 32.7696C52.6551 32.6804 52.8051 32.487 52.8501 32.2639C52.8801 32.0259 52.7901 31.8028 52.6101 31.654L48.4701 28.3815C48.4701 28.3815 48.4251 28.3666 48.4101 28.3518C48.3651 28.322 48.3351 28.3071 48.2901 28.2923C48.2601 28.2923 48.2151 28.2625 48.1851 28.2625C48.1401 28.2625 48.0951 28.2625 48.0501 28.2625C48.0051 28.2625 47.9601 28.2625 47.9151 28.2774C47.9001 28.2774 47.8701 28.2774 47.8551 28.2774L32.2551 33.4093C32.2551 33.4093 32.1951 33.439 32.1651 33.4539C32.1351 33.4539 32.1051 33.4688 32.0901 33.4985H32.0751L27.3801 36.7264C27.0801 36.9346 27.0051 37.3363 27.2151 37.6338C27.4251 37.9313 27.8301 38.0056 28.1301 37.7974L31.8051 35.2686V39.7014H28.5201C28.1901 39.7014 27.9201 39.9691 27.9201 40.2964V40.5641H27.6201C26.5251 40.5641 25.6401 41.4418 25.6401 42.5276V55.7366C25.6401 56.8225 26.5251 57.7001 27.6201 57.7001H27.9201V57.9679C27.9201 58.2951 28.1901 58.5629 28.5201 58.5629H31.9701V65.9111H27.0801C26.8101 65.9111 26.5851 66.1343 26.5851 66.402C26.5851 66.6698 26.8101 66.8929 27.0801 66.8929H37.8501C38.1201 66.8929 38.3451 66.6698 38.3451 66.402C38.3451 66.1343 38.1201 65.9111 37.8501 65.9111H32.9601V58.5629H36.4101C36.7401 58.5629 37.0101 58.2951 37.0101 57.9679V57.7001H37.3101C38.4051 57.7001 39.2901 56.8225 39.2901 55.7366V42.5276C39.2901 41.4418 38.4051 40.5641 37.3101 40.5641H37.0101V40.2964C37.0101 39.9691 36.7401 39.7014 36.4101 39.7014H33.1251V35.2984L37.2351 38.2734C37.3551 38.3626 37.4901 38.3924 37.6251 38.3924C37.7001 38.3924 37.7901 38.3924 37.8651 38.3478L47.4201 34.6885V36.5033H44.3001C43.9851 36.5033 43.7301 36.7561 43.7301 37.0685V37.3363H43.4451C42.3951 37.3363 41.5401 38.1841 41.5401 39.2254V51.9138C41.5401 52.955 42.3951 53.8029 43.4451 53.8029H43.7301V54.0706C43.7301 54.383 43.9851 54.6359 44.3001 54.6359H47.6151V60.7495H42.9201C42.6501 60.7495 42.4401 60.9578 42.4401 61.2255C42.4401 61.4933 42.6501 61.7015 42.9201 61.7015H53.2551C53.5251 61.7015 53.7351 61.4933 53.7351 61.2255C53.7351 60.9578 53.5251 60.7495 53.2551 60.7495H48.5601V54.6359H51.8751C52.1901 54.6359 52.4451 54.383 52.4451 54.0706V53.8029H52.7301C53.7801 53.8029 54.6351 52.955 54.6351 51.9138V39.2403C54.6351 38.199 53.7801 37.3511 52.7301 37.3511H52.7001Z" fill="white"/>
<defs>
<linearGradient id="paint0_linear_1484_25812" x1="40.25" y1="13.3875" x2="40.25" y2="105.895" gradientUnits="userSpaceOnUse">
<stop stop-color="#9254DE"/>
<stop offset="1" stop-color="#722ED1"/>
</linearGradient>
</defs>
</svg>
